<svg xmlns="http://www.w3.org/2000/svg" width="164" height="36">
    <g fill="none" fill-rule="nonzero">
    <path d="M56.942,15.03l-4.18,-8.68l-1.045,0l-1.447,11.685l0.884,0l1.287,-10.266l0.08,0l4.019,8.43l0.884,0l4.019,-8.43l0.081,0l1.286,10.266l0.884,0l-1.447,-11.685l-1.045,0l-4.18,8.68l-0.08,0Zm16.157,-2.337c0,-2.02 -1.287,-3.338 -3.618,-3.338c-0.852,0 -1.511,0.2 -2.041,0.45c-0.29,0.151 -0.547,0.301 -0.772,0.468l0.402,0.668c0.193,-0.151 0.418,-0.268 0.659,-0.385c0.434,-0.183 1.029,-0.367 1.752,-0.367c1.801,0 2.733,0.985 2.733,2.504l0,0.334c-0.241,-0.067 -0.498,-0.117 -0.771,-0.167c-0.467,-0.083 -1.11,-0.167 -1.801,-0.167c-2.733,0 -3.939,1.235 -3.939,2.838c0,1.602 1.206,2.838 3.939,2.838c0.965,0 1.785,-0.151 2.444,-0.334c0.37,-0.1 0.707,-0.217 1.013,-0.334l0,-5.008Zm-0.885,4.424c-0.225,0.083 -0.482,0.15 -0.755,0.2c-0.467,0.117 -1.11,0.217 -1.817,0.217c-2.186,0 -3.054,-0.918 -3.054,-2.003c0,-1.085 0.803,-2.003 3.054,-2.003c0.691,0 1.286,0.083 1.801,0.167c0.273,0.05 0.53,0.1 0.771,0.167l0,3.255Zm10.932,-7.428l-0.884,0l0,7.428c-0.241,0.083 -0.498,0.15 -0.772,0.2c-0.466,0.117 -1.109,0.217 -1.8,0.217c-2.01,0 -3.215,-1.252 -3.215,-2.921l0,-4.924l-0.885,0l0,4.924c0,2.17 1.528,3.756 4.1,3.756c0.916,0 1.736,-0.151 2.427,-0.334c0.37,-0.1 0.708,-0.217 1.029,-0.334l0,-8.012Zm5.707,0.5c0.643,0 1.174,0.151 1.608,0.334c0.241,0.1 0.45,0.217 0.643,0.334l0.402,-0.751c-0.209,-0.15 -0.45,-0.267 -0.724,-0.384c-0.466,-0.184 -1.109,-0.367 -1.929,-0.367c-0.82,0 -1.479,0.15 -2.009,0.334c-0.29,0.1 -0.563,0.217 -0.804,0.334l0,8.012l0.884,0l0,-7.428c0.161,-0.084 0.338,-0.151 0.547,-0.217c0.337,-0.084 0.82,-0.201 1.382,-0.201Zm4.1,-3.255c0,0.418 0.321,0.751 0.723,0.751c0.402,0 0.723,-0.333 0.723,-0.751c0,-0.417 -0.321,-0.751 -0.723,-0.751c-0.402,0 -0.723,0.334 -0.723,0.751Zm0.241,11.101l0.884,0l0,-8.346l-0.884,0l0,8.346Zm10.288,-1.419c-0.209,0.167 -0.45,0.317 -0.707,0.451c-0.466,0.25 -1.093,0.467 -1.865,0.467c-2.106,0 -3.536,-1.486 -3.536,-3.672c0,-2.187 1.43,-3.673 3.536,-3.673c0.772,0 1.335,0.167 1.785,0.367c0.241,0.117 0.45,0.234 0.627,0.385l0.402,-0.668c-0.209,-0.167 -0.467,-0.317 -0.74,-0.468c-0.498,-0.217 -1.173,-0.45 -2.074,-0.45c-2.572,0 -4.421,1.919 -4.421,4.507c0,2.587 1.849,4.507 4.421,4.507c0.901,0 1.592,-0.234 2.155,-0.551c0.305,-0.151 0.578,-0.334 0.819,-0.534l-0.402,-0.668Zm2.251,-9.682c0,0.418 0.322,0.751 0.724,0.751c0.402,0 0.723,-0.333 0.723,-0.751c0,-0.417 -0.321,-0.751 -0.723,-0.751c-0.402,0 -0.724,0.334 -0.724,0.751Zm0.241,11.101l0.885,0l0,-8.346l-0.885,0l0,8.346Zm4.18,-4.173c0,-2.187 1.447,-3.673 3.376,-3.673c1.929,0 3.376,1.486 3.376,3.673c0,2.186 -1.447,3.672 -3.376,3.672c-1.929,0 -3.376,-1.486 -3.376,-3.672Zm7.636,0c0,-2.588 -1.864,-4.507 -4.26,-4.507c-2.395,0 -4.26,1.919 -4.26,4.507c0,2.587 1.865,4.507 4.26,4.507c2.396,0 4.26,-1.92 4.26,-4.507Zm10.691,4.173l1.206,0l4.742,-11.685l-0.964,0l-4.341,10.767l-0.08,0l-4.341,-10.767l-0.964,0l4.742,11.685Zm14.549,-4.173c0,-2.755 -1.688,-4.507 -3.939,-4.507c-2.25,0 -4.019,1.836 -4.019,4.507c0,2.587 1.849,4.507 4.341,4.507c0.916,0 1.656,-0.234 2.218,-0.551c0.306,-0.151 0.595,-0.334 0.836,-0.534l-0.402,-0.668c-0.225,0.167 -0.482,0.317 -0.755,0.451c-0.466,0.25 -1.125,0.467 -1.897,0.467c-2.01,0 -3.376,-1.419 -3.457,-3.172l6.672,0l0.402,-0.5Zm-7.074,-0.334c0.177,-2.003 1.447,-3.339 3.135,-3.339c1.688,0 2.974,1.336 3.055,3.339l-6.19,0Zm13.263,-3.339c0.643,0 1.19,0.117 1.656,0.251c0.241,0.083 0.466,0.167 0.675,0.25l0,6.009c-0.209,0.084 -0.434,0.167 -0.675,0.251c-0.434,0.133 -1.013,0.25 -1.656,0.25c-2.186,0 -3.617,-1.502 -3.617,-3.505c0,-2.003 1.431,-3.506 3.617,-3.506Zm2.331,7.679c0,1.502 -1.286,2.837 -3.295,2.837c-0.772,0 -1.367,-0.2 -1.865,-0.45c-0.257,-0.15 -0.498,-0.301 -0.707,-0.468l-0.402,0.668c0.241,0.2 0.514,0.384 0.82,0.551c0.53,0.267 1.254,0.534 2.154,0.534c2.492,0 4.18,-1.736 4.18,-3.672l0,-7.845c-0.306,-0.117 -0.644,-0.234 -0.997,-0.334c-0.627,-0.184 -1.399,-0.334 -2.219,-0.334c-2.733,0 -4.501,1.953 -4.501,4.34c0,2.337 1.768,4.34 4.501,4.34c0.724,0 1.27,-0.117 1.704,-0.267c0.242,-0.067 0.451,-0.151 0.627,-0.251l0,0.351Zm10.45,-5.175c0,-2.02 -1.286,-3.338 -3.617,-3.338c-0.852,0 -1.511,0.2 -2.042,0.45c-0.289,0.151 -0.546,0.301 -0.772,0.468l0.402,0.668c0.193,-0.151 0.418,-0.268 0.66,-0.385c0.434,-0.183 1.028,-0.367 1.752,-0.367c1.8,0 2.733,0.985 2.733,2.504l0,0.334c-0.241,-0.067 -0.499,-0.117 -0.772,-0.167c-0.466,-0.083 -1.109,-0.167 -1.8,-0.167c-2.733,0 -3.939,1.235 -3.939,2.838c0,1.602 1.206,2.838 3.939,2.838c0.964,0 1.784,-0.151 2.443,-0.334c0.37,-0.1 0.707,-0.217 1.013,-0.334l0,-5.008Zm-0.884,4.424c-0.225,0.083 -0.483,0.15 -0.756,0.2c-0.466,0.117 -1.109,0.217 -1.816,0.217c-2.187,0 -3.055,-0.918 -3.055,-2.003c0,-1.085 0.804,-2.003 3.055,-2.003c0.691,0 1.286,0.083 1.8,0.167c0.273,0.05 0.531,0.1 0.772,0.167l0,3.255Z" style="fill:#6c6e70;fill-rule:nonzero;"/><path d="M114.442,29.817l3.905,0l0,-1.217l-2.473,0l0,-0.54l1.562,0l0,-1.217l-1.562,0l0,-0.54l2.408,0l0,-1.216l-3.84,0l0,4.73Zm7.884,-2.365l-1.497,-2.365l-1.497,0l0,4.73l1.432,0l0,-2.365l0.065,0l1.497,2.365l1.497,0l0,-4.73l-1.432,0l0,2.365l-0.065,0Zm2.417,-2.365l0,1.283l1.367,0l0,3.447l1.432,0l0,-3.447l1.366,0l0,-1.283l-4.165,0Zm5.085,4.73l3.905,0l0,-1.217l-2.473,0l0,-0.54l1.562,0l0,-1.217l-1.562,0l0,-0.54l2.408,0l0,-1.216l-3.84,0l0,4.73Zm4.891,-4.73l0,4.73l1.431,0l0,-1.487l0.684,0l0.878,1.487l1.627,0l-1.171,-1.892l0,-0.068c0.149,-0.061 0.28,-0.142 0.39,-0.243c0.202,-0.183 0.391,-0.466 0.391,-0.906c0,-0.912 -0.684,-1.621 -1.985,-1.621l-2.245,0Zm1.431,1.148l0.814,0c0.293,0 0.488,0.203 0.488,0.473c0,0.271 -0.195,0.473 -0.488,0.473l-0.814,0l0,-0.946Zm5.411,2.23l0.814,0c1.373,0 2.05,-0.709 2.05,-1.689c0,-0.98 -0.677,-1.689 -2.05,-1.689l-2.246,0l0,4.73l1.432,0l0,-1.352Zm0.814,-2.23c0.331,0 0.553,0.237 0.553,0.541c0,0.304 -0.222,0.541 -0.553,0.541l-0.814,0l0,-1.082l0.814,0Zm2.97,-1.148l0,4.73l1.431,0l0,-1.487l0.684,0l0.878,1.487l1.627,0l-1.171,-1.892l0,-0.068c0.15,-0.061 0.28,-0.142 0.391,-0.243c0.201,-0.183 0.39,-0.466 0.39,-0.906c0,-0.912 -0.683,-1.621 -1.985,-1.621l-2.245,0Zm1.431,1.148l0.814,0c0.293,0 0.488,0.203 0.488,0.473c0,0.271 -0.195,0.473 -0.488,0.473l-0.814,0l0,-0.946Zm5.411,-1.148l-1.432,0l0,4.73l1.432,0l0,-4.73Zm2.63,1.344c0,-0.165 0.158,-0.329 0.57,-0.329c0.304,0 0.539,0.09 0.734,0.197c0.103,0.057 0.197,0.125 0.279,0.197l0.57,-0.953c-0.133,-0.112 -0.279,-0.21 -0.45,-0.296c-0.298,-0.15 -0.722,-0.296 -1.26,-0.296c-1.241,0 -1.931,0.724 -1.931,1.48c0,1.742 2.248,1.348 2.248,1.841c0,0.204 -0.19,0.394 -0.697,0.394c-0.335,0 -0.618,-0.116 -0.848,-0.25c-0.131,-0.076 -0.247,-0.151 -0.355,-0.243l-0.57,0.953c0.152,0.125 0.331,0.24 0.526,0.342c0.331,0.174 0.798,0.349 1.374,0.349c1.336,0 2.058,-0.756 2.058,-1.545c0,-1.677 -2.248,-1.282 -2.248,-1.841Zm3.278,3.386l3.905,0l0,-1.217l-2.473,0l0,-0.54l1.562,0l0,-1.217l-1.562,0l0,-0.54l2.408,0l0,-1.216l-3.84,0l0,4.73Z" style="fill:#403f41;fill-rule:nonzero;"/><path d="M39.344,15.211c-0.191,-0.199 -0.735,-0.746 -1.65,-1.64c-0.909,-0.9 -1.865,-1.843 -2.87,-2.836c-1.004,-0.994 -1.907,-1.894 -2.696,-2.695c-0.795,-0.8 -1.196,-1.198 -1.196,-1.198c-0.137,-0.149 -0.257,-0.254 -0.347,-0.329c-0.095,-0.074 -0.197,-0.13 -0.316,-0.179c-0.114,-0.05 -0.245,-0.088 -0.383,-0.112c-0.143,-0.025 -0.281,-0.038 -0.424,-0.038c-0.09,0 -0.209,0.013 -0.347,0.038c-0.144,0.024 -0.269,0.062 -0.389,0.112c-0.113,0.049 -0.233,0.105 -0.347,0.179c-0.24,0.15 -1.316,1.336 -1.506,1.527c-0.795,0.801 -1.704,1.701 -2.732,2.695c-1.028,0.993 -1.985,1.936 -2.876,2.836l-0.327,0.332l-0.339,-0.332c-0.908,-0.9 -1.865,-1.843 -2.869,-2.836c-1.005,-0.994 -1.908,-1.894 -2.697,-2.695c-0.795,-0.8 -1.195,-1.198 -1.195,-1.198c-0.138,-0.149 -0.258,-0.254 -0.347,-0.329c-0.096,-0.074 -0.197,-0.13 -0.317,-0.179c-0.114,-0.05 -0.245,-0.088 -0.383,-0.112c-0.143,-0.025 -0.281,-0.038 -0.424,-0.038c-0.09,0 -0.209,0.013 -0.347,0.038c-0.144,0.024 -0.269,0.062 -0.389,0.112c-0.113,0.049 -0.233,0.105 -0.346,0.179c-0.241,0.15 -1.316,1.336 -1.507,1.527c-0.795,0.801 -1.704,1.701 -2.732,2.695c-1.028,0.993 -1.985,1.936 -2.876,2.836c-0.885,0.894 -1.423,1.441 -1.608,1.64c-0.191,0.192 -0.329,0.421 -0.425,0.689c-0.089,0.266 -0.137,0.533 -0.137,0.8c0,0.267 0.048,0.534 0.137,0.801c0.096,0.267 0.234,0.497 0.425,0.689c0.185,0.193 0.395,0.354 0.628,0.472c0.233,0.124 0.466,0.186 0.699,0.186c0.233,0 0.478,-0.05 0.736,-0.149c0.256,-0.099 0.502,-0.267 0.735,-0.509l7.007,-6.983l7.007,6.983c0.281,0.242 0.538,0.41 0.771,0.509c0.233,0.099 0.478,0.149 0.735,0.149c0.018,0 0.037,0 0.055,-0.001c0.016,0.001 0.033,0.001 0.049,0.001c0.233,0 0.478,-0.05 0.736,-0.149c0.256,-0.099 0.502,-0.267 0.735,-0.509l7.007,-6.983l7.006,6.983c0.282,0.242 0.539,0.41 0.772,0.509c0.233,0.099 0.478,0.149 0.735,0.149c0.257,0 0.502,-0.062 0.736,-0.186c0.233,-0.118 0.442,-0.279 0.633,-0.472c0.186,-0.192 0.323,-0.422 0.419,-0.689c0.096,-0.267 0.137,-0.546 0.137,-0.838c0,-0.291 -0.041,-0.559 -0.137,-0.801c-0.096,-0.242 -0.233,-0.459 -0.419,-0.651" style="fill:#a6ce38;fill-rule:nonzero;"/><path d="M27.816,17.81l-7.006,6.984l-7.007,-6.984c-0.281,-0.242 -0.538,-0.409 -0.771,-0.509c-0.234,-0.099 -0.479,-0.149 -0.736,-0.149c-0.257,0 -0.502,0.062 -0.735,0.186c-0.233,0.118 -0.443,0.28 -0.634,0.472c-0.185,0.192 -0.322,0.422 -0.418,0.689c-0.096,0.267 -0.138,0.546 -0.138,0.838c0,0.292 0.042,0.559 0.138,0.801c0.096,0.242 0.233,0.459 0.418,0.652c0.191,0.198 0.735,0.745 1.65,1.639c0.909,0.9 1.865,1.843 2.87,2.836c1.004,0.994 1.907,1.894 2.696,2.695c0.796,0.8 1.196,1.198 1.196,1.198c0.138,0.149 0.257,0.254 0.347,0.329c0.095,0.074 0.197,0.13 0.316,0.18c0.114,0.049 0.246,0.087 0.384,0.111c0.143,0.026 0.28,0.038 0.424,0.038c0.143,0 0.28,-0.012 0.424,-0.038c0.137,-0.024 0.269,-0.062 0.383,-0.111c0.119,-0.05 0.221,-0.106 0.316,-0.18c0.09,-0.075 0.209,-0.18 0.347,-0.329c0,0 0.4,-0.398 1.196,-1.198c0.789,-0.801 1.692,-1.701 2.696,-2.695c1.005,-0.993 1.961,-1.936 2.87,-2.836c0.915,-0.894 1.459,-1.441 1.65,-1.639c0.185,-0.193 0.323,-0.41 0.418,-0.652c0.096,-0.242 0.138,-0.509 0.138,-0.801c0,-0.292 -0.042,-0.571 -0.138,-0.838c-0.095,-0.267 -0.233,-0.497 -0.418,-0.689c-0.191,-0.192 -0.401,-0.354 -0.634,-0.472c-0.233,-0.124 -0.478,-0.186 -0.735,-0.186c-0.257,0 -0.502,0.05 -0.736,0.149c-0.233,0.1 -0.49,0.267 -0.771,0.509" style="fill:#403f41;"/>    </g>
</svg>
