<svg xmlns="http://www.w3.org/2000/svg" width="54" height="54">
    <g fill="none" fill-rule="evenodd">
        <path d="M53.207,23.025c-0.272,-0.283 -1.047,-1.061 -2.35,-2.335c-1.295,-1.282 -2.658,-2.627 -4.089,-4.041c-1.431,-1.416 -2.717,-2.698 -3.842,-3.839c-1.133,-1.141 -1.704,-1.707 -1.704,-1.707c-0.196,-0.213 -0.366,-0.363 -0.494,-0.469c-0.136,-0.106 -0.281,-0.186 -0.451,-0.256c-0.162,-0.071 -0.349,-0.125 -0.546,-0.16c-0.204,-0.035 -0.4,-0.053 -0.604,-0.053c-0.128,0 -0.298,0.018 -0.494,0.053c-0.205,0.035 -0.384,0.089 -0.554,0.16c-0.162,0.07 -0.332,0.15 -0.494,0.256c-0.342,0.213 -1.875,1.902 -2.147,2.176c-1.132,1.141 -2.427,2.423 -3.892,3.839c-1.465,1.414 -2.828,2.759 -4.097,4.041l-0.467,0.472l-0.482,-0.472c-1.295,-1.282 -2.658,-2.627 -4.089,-4.041c-1.431,-1.416 -2.717,-2.698 -3.842,-3.839c-1.133,-1.141 -1.703,-1.707 -1.703,-1.707c-0.196,-0.213 -0.367,-0.363 -0.494,-0.469c-0.136,-0.106 -0.281,-0.186 -0.451,-0.256c-0.163,-0.071 -0.35,-0.125 -0.546,-0.16c-0.204,-0.035 -0.4,-0.053 -0.604,-0.053c-0.128,0 -0.299,0.018 -0.495,0.053c-0.204,0.035 -0.383,0.089 -0.553,0.16c-0.162,0.07 -0.332,0.15 -0.494,0.256c-0.343,0.213 -1.876,1.902 -2.147,2.176c-1.133,1.141 -2.427,2.423 -3.892,3.839c-1.466,1.414 -2.829,2.759 -4.098,4.041c-1.26,1.274 -2.027,2.052 -2.292,2.335c-0.272,0.274 -0.468,0.601 -0.604,0.982c-0.128,0.38 -0.196,0.761 -0.196,1.141c0,0.38 0.068,0.761 0.196,1.141c0.136,0.38 0.332,0.708 0.604,0.982c0.265,0.274 0.563,0.504 0.895,0.672c0.332,0.177 0.665,0.265 0.997,0.265c0.332,0 0.681,-0.071 1.048,-0.212c0.365,-0.142 0.715,-0.38 1.047,-0.725l9.984,-9.95l9.983,9.95c0.4,0.345 0.766,0.583 1.098,0.725c0.333,0.141 0.682,0.212 1.048,0.212c0.026,0 0.052,0 0.078,-0.001c0.023,0.001 0.047,0.001 0.07,0.001c0.332,0 0.682,-0.071 1.048,-0.212c0.366,-0.142 0.715,-0.38 1.047,-0.725l9.984,-9.95l9.983,9.95c0.401,0.345 0.767,0.583 1.099,0.725c0.333,0.141 0.681,0.212 1.048,0.212c0.366,0 0.715,-0.088 1.048,-0.265c0.332,-0.168 0.63,-0.398 0.902,-0.672c0.265,-0.274 0.46,-0.602 0.597,-0.982c0.136,-0.38 0.196,-0.778 0.196,-1.194c0,-0.415 -0.06,-0.796 -0.196,-1.141c-0.137,-0.345 -0.332,-0.655 -0.597,-0.929" style="fill:#a6ce38;fill-rule:nonzero;"/><path d="M36.783,26.729l-9.983,9.951l-9.983,-9.951c-0.401,-0.344 -0.767,-0.583 -1.099,-0.725c-0.333,-0.141 -0.682,-0.212 -1.048,-0.212c-0.367,0 -0.715,0.088 -1.048,0.265c-0.332,0.168 -0.63,0.398 -0.902,0.672c-0.265,0.274 -0.46,0.602 -0.597,0.982c-0.136,0.38 -0.196,0.778 -0.196,1.194c0,0.415 0.06,0.796 0.196,1.141c0.137,0.345 0.332,0.655 0.597,0.929c0.272,0.283 1.047,1.061 2.35,2.335c1.295,1.282 2.658,2.627 4.089,4.041c1.431,1.416 2.717,2.698 3.842,3.839c1.133,1.141 1.703,1.707 1.703,1.707c0.196,0.213 0.367,0.363 0.495,0.469c0.135,0.106 0.28,0.186 0.451,0.256c0.162,0.071 0.349,0.125 0.545,0.16c0.204,0.035 0.401,0.053 0.605,0.053c0.204,0 0.4,-0.018 0.604,-0.053c0.196,-0.035 0.383,-0.089 0.545,-0.16c0.171,-0.07 0.316,-0.15 0.451,-0.256c0.128,-0.106 0.299,-0.256 0.495,-0.469c0,0 0.57,-0.566 1.703,-1.707c1.125,-1.141 2.411,-2.423 3.842,-3.839c1.431,-1.414 2.794,-2.759 4.089,-4.041c1.303,-1.274 2.078,-2.052 2.351,-2.335c0.264,-0.274 0.46,-0.584 0.596,-0.929c0.136,-0.345 0.196,-0.726 0.196,-1.141c0,-0.416 -0.06,-0.814 -0.196,-1.194c-0.136,-0.38 -0.332,-0.708 -0.596,-0.982c-0.273,-0.274 -0.571,-0.504 -0.903,-0.672c-0.333,-0.177 -0.681,-0.265 -1.048,-0.265c-0.366,0 -0.715,0.071 -1.048,0.212c-0.332,0.142 -0.698,0.381 -1.098,0.725" style="fill:#403f41;"/>
    </g>
</svg>
