<?xml version="1.0" encoding="UTF-8" standalone="no"?><!DOCTYPE svg PUBLIC "-//W3C//DTD SVG 1.1//EN" "http://www.w3.org/Graphics/SVG/1.1/DTD/svg11.dtd"><svg width="100%" height="100%" viewBox="0 0 990 637" version="1.1" xmlns="http://www.w3.org/2000/svg" xmlns:xlink="http://www.w3.org/1999/xlink" xml:space="preserve" xmlns:serif="http://www.serif.com/" style="fill-rule:evenodd;clip-rule:evenodd;stroke-linejoin:round;stroke-miterlimit:2;"><path d="M1156.43,183.206c0,0 -834.103,-4.223 -1005.66,111.193c-49.373,33.215 -59.863,133.771 179.052,204.687c159.299,47.284 492.467,77.452 767.854,80.141c124.285,1.213 58.755,-396.021 58.755,-396.021Z" style="fill:#f4f5fb;"/><g><path d="M637.945,336.443l146.156,110.626l-242.203,97.83l-146.152,-110.626l242.199,-97.83Z" style="fill:#ededed;fill-rule:nonzero;"/><path d="M442.296,439.774l105.639,79.965l-7.344,2.963l-105.64,-79.961l7.345,-2.967Z" style="fill:#1d1d1b;fill-rule:nonzero;"/><path d="M462.41,431.65l105.639,79.965l-4.519,1.825l-105.639,-79.964l4.519,-1.826Z" style="fill:#1d1d1b;fill-rule:nonzero;"/><path d="M474.556,426.743l105.639,79.964l-4.519,1.826l-105.639,-79.964l4.519,-1.826Z" style="fill:#1d1d1b;fill-rule:nonzero;"/><path d="M486.702,421.839l105.64,79.961l-4.52,1.826l-105.639,-79.964l4.519,-1.823Z" style="fill:#1d1d1b;fill-rule:nonzero;"/><path d="M510.994,412.025l105.639,79.965l-4.519,1.826l-105.64,-79.965l4.52,-1.826Z" style="fill:#1d1d1b;fill-rule:nonzero;"/><path d="M523.14,407.118l105.639,79.965l-4.519,1.826l-105.639,-79.965l4.519,-1.826Z" style="fill:#1d1d1b;fill-rule:nonzero;"/><path d="M600.478,451.56l40.447,30.616l-4.519,1.826l-40.448,-30.616l4.52,-1.826Z" style="fill:#1d1d1b;fill-rule:nonzero;"/><path d="M547.432,397.308l105.639,79.965l-4.519,1.822l-105.64,-79.961l4.52,-1.826Z" style="fill:#1d1d1b;fill-rule:nonzero;"/><path d="M559.578,392.401l105.639,79.964l-4.519,1.826l-105.64,-79.964l4.52,-1.826Z" style="fill:#1d1d1b;fill-rule:nonzero;"/><path d="M596.468,406.227l80.895,61.231l-4.519,1.826l-80.895,-61.234l4.519,-1.823Z" style="fill:#1d1d1b;fill-rule:nonzero;"/><path d="M666.693,417.08l47.108,35.661l-4.52,1.826l-47.108,-35.661l4.52,-1.826Z" style="fill:#1d1d1b;fill-rule:nonzero;"/><path d="M678.839,412.177l47.108,35.657l-4.52,1.826l-47.108,-35.657l4.52,-1.826Z" style="fill:#1d1d1b;fill-rule:nonzero;"/><path d="M619.068,371.162c-12.253,4.949 -13.649,15.466 -3.112,23.441c10.54,7.979 29.083,10.441 41.337,5.489c12.253,-4.948 13.649,-15.465 3.112,-23.44c-10.536,-7.978 -29.079,-10.441 -41.337,-5.49Zm39.607,29.976c-13.141,5.307 -33.023,2.667 -44.323,-5.886c-11.3,-8.554 -9.802,-19.83 3.338,-25.138c13.141,-5.307 33.023,-2.667 44.323,5.886c11.3,8.553 9.802,19.83 -3.338,25.138Z" style="fill:#1d71b8;fill-rule:nonzero;"/><path d="M621.604,373.078c-10.63,4.295 -11.842,13.417 -2.701,20.337c9.141,6.92 25.228,9.053 35.858,4.762c10.626,-4.295 11.842,-13.417 2.701,-20.337c-9.145,-6.921 -25.228,-9.056 -35.858,-4.762Zm34.077,25.794c-11.223,4.534 -28.201,2.28 -37.848,-5.026c-9.651,-7.302 -8.372,-16.933 2.85,-21.463c11.22,-4.535 28.198,-2.28 37.849,5.026c9.647,7.302 8.368,16.933 -2.851,21.463Z" style="fill:#1d71b8;fill-rule:nonzero;"/><path d="M628.679,378.434c-6.092,2.464 -6.786,7.69 -1.548,11.654c5.241,3.969 14.457,5.193 20.552,2.73c6.091,-2.461 6.785,-7.69 1.548,-11.655c-5.238,-3.965 -14.458,-5.189 -20.552,-2.729Zm19.924,15.083c-6.684,2.699 -16.795,1.357 -22.543,-2.994c-5.747,-4.35 -4.985,-10.085 1.698,-12.785c6.684,-2.7 16.795,-1.357 22.543,2.994c5.747,4.35 4.985,10.085 -1.698,12.785Z" style="fill:#1d71b8;fill-rule:nonzero;"/><path d="M631.012,375.463l-0.205,-0.016l-0.208,-0.079l-3.67,-1.819l1.885,2.247c-0.434,0.094 -2.75,-2.676 -2.75,-2.676l0.374,-0.128l0.254,0.1l3.584,1.793l-1.889,-2.252c0.434,-0.09 2.754,2.681 2.754,2.681l-0.129,0.149Z" style="fill:#1d71b8;fill-rule:nonzero;"/><path d="M633.414,372.942l-0.495,-0.473l-0.817,-0.108l-0.672,0.21l-0.041,0.509l0.604,1.319l0.493,0.48l0.822,0.105l0.672,-0.207l0.038,-0.512l-0.604,-1.323Zm0.014,2.306l-0.609,-0.011l-0.544,-0.128l-0.444,-0.258l-0.306,-0.418l-0.603,-1.323l-0.083,-0.425l0.187,-0.304l0.398,-0.188l0.561,-0.088l0.605,0.006l0.548,0.129l0.437,0.257l0.306,0.414l0.608,1.32l0.078,0.432l-0.184,0.305l-0.397,0.187l-0.558,0.093Z" style="fill:#1d71b8;fill-rule:nonzero;"/><path d="M637.799,372.126l-1.191,0.208l0.373,2.753c-0.484,-0.02 -0.86,-2.773 -0.86,-2.773l-1.235,-0.053l2.913,-0.135Z" style="fill:#1d71b8;fill-rule:nonzero;"/><path d="M640.886,374.652l-0.615,-1.805l-1.173,1.549l1.788,0.256Zm-2.598,0.598l-0.181,-0.054l1.933,-2.735c0.371,-0.047 0.429,-0.028 0.479,-0.003l1.165,3.128l-0.307,0.103l-0.172,-0.096l-0.232,-0.686l-2.04,-0.293l-0.443,0.592l-0.202,0.044Z" style="fill:#1d71b8;fill-rule:nonzero;"/><path d="M643.934,373.359l-0.596,1.086l0.957,0.249l0.837,0.078l0.528,-0.344l-0.063,-0.49l-0.699,-0.325l-0.964,-0.254Zm-0.386,-0.266l0.228,-0.044l1.251,0.329l0.566,0.19l0.415,0.251l0.202,0.323l-0.076,0.397l-0.257,0.291l-0.356,0.16l-0.428,0.046l-0.476,-0.041l0.457,1.433l-0.339,0.118l-0.625,-1.647l-0.898,-0.238l-0.655,1.189c-0.466,-0.125 0.991,-2.757 0.991,-2.757Z" style="fill:#1d71b8;fill-rule:nonzero;"/><path d="M647.462,376.224l0.063,-1.922l0.361,-0.078l0.024,1.86l2.481,-0.769l0.237,0.002l-2.696,1.054l-0.932,0.893c-0.429,-0.171 0.462,-1.04 0.462,-1.04Z" style="fill:#1d71b8;fill-rule:nonzero;"/><path d="M661.359,386.568l-4.98,0.045l4.98,-0.045Z" style="fill:#1d71b8;fill-rule:nonzero;"/><path d="M630.523,379.829c-4.914,1.984 -5.473,6.2 -1.248,9.398c4.222,3.193 11.654,4.18 16.563,2.199c4.914,-1.984 5.473,-6.2 1.252,-9.397c-4.225,-3.198 -11.654,-4.185 -16.567,-2.2Zm16.239,12.293c-5.501,2.221 -13.829,1.115 -18.557,-2.464c-4.732,-3.58 -4.105,-8.304 1.397,-10.525c5.503,-2.224 13.827,-1.119 18.558,2.465c4.732,3.579 4.104,8.304 -1.398,10.524Z" style="fill:#1d71b8;fill-rule:nonzero;"/><path d="M623.58,378.182l0.202,0.097l0.097,0.209l-0.17,0.17l-0.344,0.013l-2.155,-0.527l0.264,1.3l-0.112,0.163l-0.334,0.044l-0.362,-0.103l-0.096,-0.161l-0.136,-1.268l-1.999,0.334l-0.258,-0.009l-0.213,-0.102l-0.12,-0.201l0.159,-0.175l2.145,-0.306l-1.459,-1.034l-0.095,-0.194l0.167,-0.144l0.295,-0.042l0.309,0.108l1.346,1.092l1.093,-1.001l0.427,-0.069l0.307,0.133l0.038,0.275l-1.176,0.923l2.18,0.475Z" style="fill:#1d71b8;fill-rule:nonzero;"/><path d="M658.377,393.798l0.202,0.097l0.096,0.209l-0.169,0.169l-0.345,0.014l-2.155,-0.527l0.264,1.3l-0.112,0.163l-0.333,0.044l-0.363,-0.103l-0.095,-0.165l-0.137,-1.264l-1.998,0.334l-0.259,-0.009l-0.212,-0.102l-0.12,-0.201l0.159,-0.175l2.145,-0.307l-1.459,-1.033l-0.095,-0.194l0.166,-0.144l0.296,-0.046l0.309,0.111l1.346,1.093l1.093,-1.002l0.427,-0.069l0.31,0.134l0.032,0.27l-1.173,0.925l2.18,0.478Z" style="fill:#1d71b8;fill-rule:nonzero;"/><path d="M771.773,275.867c1.875,-14.126 -5.936,-32.645 -17.455,-41.36c-5.727,-4.337 -11.29,-5.427 -15.669,-3.693c-4.423,1.75 -7.636,6.386 -8.579,13.487c-1.876,14.126 5.939,32.642 17.455,41.357c5.959,4.512 11.735,5.504 16.188,3.466c4.153,-1.9 7.154,-6.439 8.06,-13.257Z" style="fill:#575756;fill-rule:nonzero;"/><path d="M749.59,291.712c-9.658,2.645 -17.312,-8.73 -22.143,-18.362c-3.872,-13.114 -11.286,-29.495 -4.851,-33.388c7.218,-3.742 24.305,3.475 35.647,9.722c-0.079,15.596 4.129,36.129 -8.653,42.028Z" style="fill:#dadada;fill-rule:nonzero;"/><path d="M825.046,257.132l-62.096,20.589l-20.312,7.739c-4.37,0.47 -4.37,12.892 -12.953,20.166l-12.803,10.426l-3.839,-1.541l-23.382,-9.374l0.239,-0.608c0.244,-0.622 0.462,-1.244 0.633,-1.876c-3.323,-7.216 -18.755,-7.298 -33.356,-7.869l-3.019,5.668c4.911,0.386 8.311,3.223 10.465,8.065l-3.414,4.358l-13.684,17.484l-1.551,1.98l-8.077,-2.485l-2.971,-0.562c-2.792,-0.526 -5.308,-2.017 -7.084,-4.206l-13.296,-16.344c-3.035,-3.909 -4.139,-8.02 -2.261,-12.438c-1.36,-2.063 -1.828,-4.436 -0.67,-7.371l-0.38,-1.248c-0.857,-2.844 -0.545,-5.905 0.879,-8.519l0.285,-0.532l7.039,-12.941l1.608,-3.943c2.096,-5.154 7.375,-8.422 13.006,-7.87l60.418,-10.39c9.78,-1.46 18.941,-1.949 26.844,-0.478l74.456,-43.178l29.276,57.298Z" style="fill:#fcaf75;fill-rule:nonzero;"/><path d="M661.209,312.875l-15.002,-7.325c5.595,-5.418 7.978,-13.071 10.88,-21.706c6.911,3.469 14.229,6.139 21.303,7.078c5.276,0.701 10.416,0.44 15.14,-1.173c0.358,4.707 -0.984,9.651 -3.623,14.781c0.237,-0.623 0.455,-1.245 0.626,-1.877c-1.82,-3.955 -7.276,-5.766 -14.239,-6.691c-5.746,-0.763 -12.513,-0.919 -19.117,-1.178l-3.019,5.668c0.25,0.018 0.495,0.044 0.736,0.076c4.517,0.599 7.682,3.39 9.729,7.989l-3.414,4.358Z" style="fill:#fa9355;fill-rule:nonzero;"/><path d="M643.825,331.68l-5.928,-1.826l-2.971,-0.562c-2.792,-0.526 -5.308,-2.017 -7.084,-4.206l-13.296,-16.344c-2.338,-3.01 -3.527,-6.134 -3.097,-9.431c0.128,-0.986 0.404,-1.988 0.836,-3.007c-1.002,-1.523 -1.519,-3.216 -1.258,-5.178c0.092,-0.694 0.283,-1.427 0.588,-2.193l-0.38,-1.248c-0.463,-1.534 -0.582,-3.129 -0.376,-4.684c0.181,-1.33 0.598,-2.632 1.255,-3.835l0.285,-0.532l0.92,3.647l8.512,-14.45l-7.619,18.618l1.492,4.24c4.856,-8.356 8.298,-16.268 12.086,-26.819c1.586,-3.891 4.953,-5.064 8.704,-5.671c-4.228,2.016 -5.759,4.242 -6.576,7.418c-3.394,10.932 -7.046,19.464 -12.259,28.128c-2.304,3.825 -2.125,8.69 0.559,12.293c1.971,2.647 4.684,4.816 7.377,5.174c1.525,0.202 3.039,-0.174 4.407,-1.375c-1.933,-3.049 -2.891,-7.544 -0.227,-11.107c5.297,-7.34 9.26,-15.375 10.899,-23.893c2.151,-8.061 6.65,-8.799 12.348,-8.072c-5.417,0.927 -8.826,2.471 -10.831,8.274c-1.293,9.085 -4.42,17.405 -9.579,24.871c-2.312,3.346 -1.784,7.932 1.369,10.559c3.935,4.587 9.143,6.735 15.099,7.526c0.292,0.039 0.581,0.074 0.875,0.105l-0.562,2.844l-0.308,-0.123c-1.508,3.931 -3.191,7.561 -5.26,10.859Z" style="fill:#fa9355;fill-rule:nonzero;"/><path d="M671.411,373.187c-2.019,5.709 -16.186,6.013 -31.647,0.676c-15.462,-5.338 -26.362,-14.293 -24.347,-20.001c2.02,-5.708 16.186,-6.013 31.648,-0.676c15.462,5.338 26.362,14.293 24.346,20.001Z" style="fill:#1d1d1b;fill-rule:nonzero;"/><path d="M674.713,364.033l-55.994,-19.326l-3.302,9.155l55.85,19.676l3.446,-9.505Z" style="fill:#1d1d1b;fill-rule:nonzero;"/><path d="M674.713,364.033c-2.02,5.708 -16.186,6.012 -31.648,0.675c-15.462,-5.337 -26.362,-14.292 -24.346,-20.001c2.019,-5.708 16.186,-6.013 31.647,-0.675c15.462,5.337 26.362,14.292 24.347,20.001Z" style="fill:#292928;fill-rule:nonzero;"/><path d="M673.981,361.772c-2.015,5.709 -15.743,6.164 -30.661,1.013c-14.918,-5.146 -25.375,-13.95 -23.36,-19.659c2.016,-5.709 15.743,-6.164 30.661,-1.013c14.919,5.147 25.376,13.95 23.36,19.659Z" style="fill:#3c3c3b;fill-rule:nonzero;"/><path d="M664.811,358.191c-1.411,3.881 -10.36,4.246 -19.988,0.818c-9.624,-3.423 -16.284,-9.348 -14.87,-13.224c1.412,-3.881 10.361,-4.25 19.989,-0.822c9.627,3.427 16.284,9.348 14.869,13.228Z" style="fill:#1d1d1b;fill-rule:nonzero;"/><path d="M666.251,327.757l-17.166,-6.936c-3.788,9.871 -8.687,17.845 -17.933,23.396l33.425,11.058c-3.028,-8.867 -2.271,-16.866 1.674,-27.518Z" style="fill:#1d1d1b;fill-rule:nonzero;"/><path d="M676.34,322.743c-1.87,5.299 -9.179,7.461 -19.514,4.029c-8.942,-2.974 -14.561,-8.998 -12.738,-15.161c1.928,-6.523 10.566,-6.981 19.515,-4.028c9.828,3.247 14.608,9.861 12.737,15.16Z" style="fill:#3c3c3b;fill-rule:nonzero;"/><path d="M674.623,317.586c-0.948,2.603 -7.563,2.631 -14.778,0.06c-7.215,-2.567 -12.298,-6.759 -11.35,-9.362c0.947,-2.6 7.566,-2.627 14.782,-0.06c7.215,2.567 12.294,6.758 11.346,9.362Z" style="fill:#525250;fill-rule:nonzero;"/><path d="M716.882,316.052l-15.603,12.706c0,0 -3.014,3.983 -16.079,14.053c-5.314,4.094 -9.497,6.283 -12.767,7.317c-8.173,2.602 -10.608,-1.997 -10.608,-1.997c-12.707,-14.513 16.303,-28.782 16.303,-28.782c5.15,-4.505 9.399,-9.173 11.533,-14.212c8.571,-0.526 16.72,2.098 24.384,8.401c0.951,0.777 1.898,1.617 2.837,2.514Z" style="fill:#fcaf75;fill-rule:nonzero;"/><path d="M716.882,316.052c-0.939,-0.897 -1.886,-1.737 -2.837,-2.514c3.576,-3.482 7.271,-7.263 11.299,-10.918c5.678,-4.594 9.38,-11.713 12.134,-20.038c1.598,-3.331 1.829,-7.964 1.716,-12.92c1.443,3.051 2.111,6.471 1.817,10.356c6.246,0.708 16.381,-4.703 21.834,-13.188l0.105,10.891l-4.957,1.89l-15.355,5.849c-1.467,0.156 -2.442,1.658 -3.412,3.863c-1.924,4.363 -3.839,11.469 -9.541,16.303l-12.803,10.426Z" style="fill:#fa9355;fill-rule:nonzero;"/><path d="M669.661,350.447c7.823,-3.032 8.693,-6.012 6.169,-10.593c-1.222,-2.219 -3.369,-3.21 -5.851,-3.54c-1.75,-0.232 -3.672,-0.136 -5.555,0.095c2.556,-1.185 5.08,-1.681 7.47,-1.364c1.721,0.228 3.37,0.877 4.916,1.995c2.382,1.737 2.806,3.931 2.804,5.964c9.14,-5.75 16.692,-11.64 19.882,-17.918c4.63,-2.37 9.005,-6.197 13.547,-10.575c0.336,-0.322 0.669,-0.647 1.002,-0.973c0.951,0.777 1.898,1.617 2.837,2.514l-15.603,12.706c0,0 -3.014,3.983 -16.079,14.053c-5.314,4.094 -9.497,6.283 -12.767,7.317l-2.772,0.319Z" style="fill:#fa9355;fill-rule:nonzero;"/><path d="M722.596,239.962c20.911,-5.585 41.021,41.668 26.994,51.75l24.545,-10.782c9.639,-15.229 -2.587,-48.617 -24.494,-53.986l-27.045,13.018Z" style="fill:#ededed;fill-rule:nonzero;"/><path d="M845.072,245.79c-2.147,16.172 -14.576,21.193 -27.761,11.213c-13.185,-9.979 -22.131,-31.179 -19.984,-47.351c2.148,-16.171 14.58,-21.189 27.761,-11.213c13.185,9.979 22.132,31.179 19.984,47.351Z" style="fill:#1d1d1b;fill-rule:nonzero;"/><path d="M1081.59,159.295l-44.61,-108.119l-298.326,179.638c4.379,-1.734 9.942,-0.644 15.669,3.693c11.515,8.715 19.33,27.234 17.455,41.357c-0.906,6.821 -3.907,11.36 -8.06,13.26c0,0 170.634,-59.088 234.17,-86.226c50.891,-21.737 83.702,-43.603 83.702,-43.603Z" style="fill:#1d1d1b;fill-rule:nonzero;"/></g><g><path d="M372.752,275.746l46.273,43.505c6.548,6.16 5.863,15.584 -1.787,24.559l-60.762,71.272c-7.654,8.974 -21.038,16.056 -34.882,18.456l-97.802,16.933l148.96,-174.725Z" style="fill:#3c3c3b;fill-rule:nonzero;"/><path d="M399.275,387.927l9.117,-10.696c2.013,-2.36 1.171,-4.729 -1.878,-5.292l-27.344,-5.043c-3.048,-0.562 -7.15,0.896 -9.163,3.252l-9.117,10.696c-2.013,2.36 -1.171,4.729 1.878,5.292l27.344,5.043c3.049,0.562 7.15,-0.896 9.163,-3.252Z" style="fill:#dadada;fill-rule:nonzero;"/><path d="M372.775,275.721l-10.311,-29.041l-143.23,-26.386l-148.957,174.73l153.535,55.418l148.963,-174.721Z" style="fill:#1d1d1b;fill-rule:nonzero;"/><path d="M283.619,438.402l-150.555,-10.414l120.12,-178.388l150.556,10.41l-120.121,178.392Z" style="fill:#ededed;fill-rule:nonzero;"/><path d="M369.467,277.384l-108.824,-7.526l3.643,-5.408l108.825,7.526l-3.644,5.408Z" style="fill:#1d1d1b;fill-rule:nonzero;"/><path d="M359.491,292.198l-108.821,-7.525l2.24,-3.328l108.825,7.526l-2.244,3.327Z" style="fill:#1d1d1b;fill-rule:nonzero;"/><path d="M353.469,301.144l-108.825,-7.526l2.244,-3.327l108.821,7.526l-2.24,3.327Z" style="fill:#1d1d1b;fill-rule:nonzero;"/><path d="M347.443,310.089l-108.821,-7.525l2.24,-3.327l108.825,7.526l-2.244,3.326Z" style="fill:#1d1d1b;fill-rule:nonzero;"/><path d="M335.395,327.981l-108.821,-7.526l2.24,-3.327l108.825,7.526l-2.244,3.327Z" style="fill:#1d1d1b;fill-rule:nonzero;"/><path d="M329.373,336.93l-108.825,-7.526l2.244,-3.33l108.821,7.525l-2.24,3.331Z" style="fill:#1d1d1b;fill-rule:nonzero;"/><path d="M256.191,341.23l-41.665,-2.88l2.24,-3.331l41.669,2.884l-2.244,3.327Z" style="fill:#1d1d1b;fill-rule:nonzero;"/><path d="M317.325,354.821l-108.825,-7.526l2.244,-3.33l108.821,7.526l-2.24,3.33Z" style="fill:#1d1d1b;fill-rule:nonzero;"/><path d="M311.303,363.768l-108.825,-7.527l2.24,-3.33l108.825,7.526l-2.24,3.331Z" style="fill:#1d1d1b;fill-rule:nonzero;"/><path d="M241.389,427.923l-148.414,-27.372l139.527,-163.662l148.414,27.376l-139.527,163.658Z" style="fill:#c6c6c6;fill-rule:nonzero;"/><path d="M344.899,277.65l-107.277,-19.784l4.234,-4.963l107.274,19.784l-4.231,4.963Z" style="fill:#1d1d1b;fill-rule:nonzero;"/><path d="M333.312,291.24l-107.273,-19.784l2.603,-3.054l107.273,19.784l-2.603,3.054Z" style="fill:#1d1d1b;fill-rule:nonzero;"/><path d="M326.314,299.447l-107.274,-19.784l2.603,-3.053l107.274,19.784l-2.603,3.053Z" style="fill:#1d1d1b;fill-rule:nonzero;"/><path d="M319.315,307.655l-107.273,-19.787l2.603,-3.054l107.277,19.789l-2.607,3.052Z" style="fill:#1d1d1b;fill-rule:nonzero;"/><path d="M305.322,324.068l-107.273,-19.784l2.603,-3.053l107.274,19.784l-2.604,3.053Z" style="fill:#1d1d1b;fill-rule:nonzero;"/><path d="M298.328,332.277l-107.274,-19.784l2.603,-3.054l107.274,19.784l-2.603,3.054Z" style="fill:#1d1d1b;fill-rule:nonzero;"/><path d="M225.128,328.275l-41.073,-7.575l2.604,-3.056l41.073,7.578l-2.604,3.053Z" style="fill:#1d1d1b;fill-rule:nonzero;"/><path d="M284.331,348.692l-107.273,-19.787l2.603,-3.054l107.273,19.788l-2.603,3.053Z" style="fill:#1d1d1b;fill-rule:nonzero;"/><path d="M277.336,356.901l-107.273,-19.788l2.603,-3.053l107.274,19.784l-2.604,3.057Z" style="fill:#1d1d1b;fill-rule:nonzero;"/><path d="M245.21,360.471l-82.146,-15.15l2.603,-3.053l82.146,15.15l-2.603,3.053Z" style="fill:#1d1d1b;fill-rule:nonzero;"/><path d="M189.911,378.768l-47.838,-8.826l2.603,-3.054l47.839,8.823l-2.604,3.057Z" style="fill:#1d1d1b;fill-rule:nonzero;"/><path d="M182.914,386.972l-47.836,-8.822l2.603,-3.053l47.836,8.822l-2.603,3.053Z" style="fill:#1d1d1b;fill-rule:nonzero;"/><path d="M236.646,421.256l-148.415,-27.371l139.528,-163.662l148.41,27.375l-139.523,163.658Z" style="fill:#ededed;fill-rule:nonzero;"/><path d="M340.153,270.983l-107.273,-19.787l4.23,-4.96l107.273,19.784l-4.23,4.963Z" style="fill:#1d1d1b;fill-rule:nonzero;"/><path d="M328.565,284.573l-107.273,-19.784l2.603,-3.054l107.277,19.785l-2.607,3.053Z" style="fill:#1d1d1b;fill-rule:nonzero;"/><path d="M321.571,292.781l-107.274,-19.784l2.604,-3.057l107.273,19.788l-2.603,3.053Z" style="fill:#1d1d1b;fill-rule:nonzero;"/><path d="M314.572,300.989l-107.273,-19.788l2.603,-3.053l107.273,19.788l-2.603,3.053Z" style="fill:#1d1d1b;fill-rule:nonzero;"/><path d="M300.579,317.402l-107.273,-19.784l2.603,-3.054l107.274,19.785l-2.604,3.053Z" style="fill:#1d1d1b;fill-rule:nonzero;"/><path d="M293.581,325.61l-107.274,-19.784l2.603,-3.054l107.274,19.784l-2.603,3.054Z" style="fill:#1d1d1b;fill-rule:nonzero;"/><path d="M220.385,321.609l-41.073,-7.575l2.604,-3.057l41.073,7.575l-2.604,3.057Z" style="fill:#1d1d1b;fill-rule:nonzero;"/><path d="M279.587,342.026l-107.273,-19.788l2.604,-3.053l107.273,19.784l-2.604,3.057Z" style="fill:#1d1d1b;fill-rule:nonzero;"/><path d="M272.59,350.23l-107.274,-19.784l2.603,-3.053l107.274,19.784l-2.603,3.053Z" style="fill:#1d1d1b;fill-rule:nonzero;"/><path d="M240.467,353.804l-82.146,-15.149l2.603,-3.054l82.146,15.15l-2.603,3.053Z" style="fill:#1d1d1b;fill-rule:nonzero;"/><path d="M185.169,372.098l-47.839,-8.823l2.603,-3.053l47.839,8.823l-2.603,3.053Z" style="fill:#1d1d1b;fill-rule:nonzero;"/><path d="M178.17,380.306l-47.839,-8.823l2.603,-3.053l47.84,8.823l-2.604,3.053Z" style="fill:#1d1d1b;fill-rule:nonzero;"/><path d="M219.806,395.173l-16.032,-17.104c-2.871,-3.066 -2.401,-7.562 1.241,-11.835l69.931,-82.026c3.641,-4.273 9.919,-7.695 16.53,-9.011l36.877,-7.347c12.002,-2.392 23.404,-8.608 30.021,-16.369l4.07,-4.771l-143.21,-26.416l-148.957,174.73l143.207,26.411l4.066,-4.772c6.616,-7.761 7.475,-15.922 2.256,-21.49Z" style="fill:#3c3c3b;fill-rule:nonzero;"/><path d="M197.664,334.025l24.472,-28.703l12.178,2.246l-24.469,28.707l-12.181,-2.25Z" style="fill:#575756;fill-rule:nonzero;"/><path d="M80.588,424.065l-10.311,-29.041l143.208,26.407l10.311,29.041l-143.208,-26.407Z" style="fill:#1d1d1b;fill-rule:nonzero;"/></g><g id="Logo"><path d="M207.925,78.543l-11.421,-23.718l-2.855,0l-3.954,31.928l2.416,0l3.514,-28.051l0.22,0l10.982,23.034l2.416,0l10.982,-23.034l0.22,0l3.515,28.051l2.415,0l-3.953,-31.928l-2.856,0l-11.421,23.718l-0.22,0Zm44.149,-6.386c0,-5.519 -3.515,-9.122 -9.884,-9.122c-2.329,0 -4.129,0.547 -5.579,1.232c-0.791,0.41 -1.494,0.821 -2.109,1.277l1.098,1.824c0.527,-0.41 1.143,-0.73 1.802,-1.049c1.186,-0.502 2.811,-1.003 4.788,-1.003c4.92,0 7.468,2.691 7.468,6.841l0,0.913c-0.659,-0.183 -1.362,-0.32 -2.109,-0.457c-1.274,-0.228 -3.031,-0.456 -4.92,-0.456c-7.468,0 -10.763,3.376 -10.763,7.755c0,4.378 3.295,7.754 10.763,7.754c2.636,0 4.876,-0.411 6.677,-0.913c1.011,-0.273 1.933,-0.592 2.768,-0.912l0,-13.684Zm-2.416,12.088c-0.615,0.228 -1.318,0.41 -2.065,0.547c-1.274,0.319 -3.031,0.593 -4.964,0.593c-5.974,0 -8.347,-2.509 -8.347,-5.473c0,-2.965 2.197,-5.474 8.347,-5.474c1.889,0 3.514,0.228 4.92,0.456c0.747,0.137 1.45,0.274 2.109,0.456l0,8.895Zm29.871,-20.298l-2.416,0l0,20.298c-0.659,0.228 -1.362,0.41 -2.108,0.547c-1.275,0.319 -3.032,0.593 -4.921,0.593c-5.49,0 -8.785,-3.421 -8.785,-7.982l0,-13.456l-2.417,0l0,13.456c0,5.93 4.174,10.263 11.202,10.263c2.505,0 4.745,-0.411 6.634,-0.913c1.01,-0.273 1.933,-0.592 2.811,-0.912l0,-21.894Zm15.595,1.369c1.757,0 3.206,0.41 4.393,0.912c0.658,0.274 1.23,0.593 1.757,0.912l1.098,-2.052c-0.571,-0.411 -1.23,-0.73 -1.977,-1.05c-1.274,-0.501 -3.031,-1.003 -5.271,-1.003c-2.241,0 -4.042,0.41 -5.491,0.912c-0.791,0.274 -1.538,0.593 -2.197,0.913l0,21.893l2.416,0l0,-20.297c0.44,-0.228 0.923,-0.411 1.494,-0.593c0.923,-0.228 2.241,-0.547 3.778,-0.547Zm11.201,-8.895c0,1.14 0.879,2.053 1.977,2.053c1.098,0 1.977,-0.913 1.977,-2.053c0,-1.14 -0.879,-2.052 -1.977,-2.052c-1.098,0 -1.977,0.912 -1.977,2.052Zm0.659,30.332l2.416,0l0,-22.806l-2.416,0l0,22.806Zm28.115,-3.877c-0.571,0.457 -1.23,0.867 -1.933,1.232c-1.274,0.684 -2.987,1.277 -5.096,1.277c-5.754,0 -9.664,-4.06 -9.664,-10.035c0,-5.975 3.91,-10.034 9.664,-10.034c2.109,0 3.646,0.456 4.877,1.003c0.659,0.319 1.229,0.639 1.713,1.049l1.098,-1.824c-0.571,-0.456 -1.274,-0.867 -2.021,-1.277c-1.362,-0.593 -3.206,-1.232 -5.667,-1.232c-7.028,0 -12.08,5.245 -12.08,12.315c0,7.07 5.052,12.316 12.08,12.316c2.461,0 4.349,-0.639 5.887,-1.505c0.835,-0.411 1.582,-0.913 2.24,-1.46l-1.098,-1.825Zm6.15,-26.455c0,1.14 0.879,2.053 1.977,2.053c1.098,0 1.976,-0.913 1.976,-2.053c0,-1.14 -0.878,-2.052 -1.976,-2.052c-1.098,0 -1.977,0.912 -1.977,2.052Zm0.659,30.332l2.416,0l0,-22.806l-2.416,0l0,22.806Zm11.421,-11.403c0,-5.975 3.954,-10.034 9.226,-10.034c5.271,0 9.225,4.059 9.225,10.034c0,5.975 -3.954,10.035 -9.225,10.035c-5.272,0 -9.226,-4.06 -9.226,-10.035Zm20.867,0c0,-7.07 -5.096,-12.315 -11.641,-12.315c-6.546,0 -11.642,5.245 -11.642,12.315c0,7.07 5.096,12.316 11.642,12.316c6.545,0 11.641,-5.246 11.641,-12.316Zm29.212,11.403l3.295,0l12.959,-31.928l-2.636,0l-11.86,29.42l-0.22,0l-11.861,-29.42l-2.636,0l12.959,31.928Zm39.756,-11.403c0,-7.526 -4.613,-12.315 -10.763,-12.315c-6.15,0 -10.982,5.017 -10.982,12.315c0,7.07 5.052,12.316 11.861,12.316c2.504,0 4.524,-0.639 6.062,-1.505c0.835,-0.411 1.625,-0.913 2.284,-1.46l-1.098,-1.825c-0.615,0.457 -1.318,0.867 -2.064,1.232c-1.274,0.684 -3.076,1.277 -5.184,1.277c-5.491,0 -9.225,-3.877 -9.445,-8.666l18.231,0l1.098,-1.369Zm-19.329,-0.912c0.483,-5.473 3.954,-9.122 8.566,-9.122c4.613,0 8.127,3.649 8.347,9.122l-16.913,0Zm36.241,-9.122c1.758,0 3.251,0.319 4.525,0.684c0.659,0.228 1.274,0.456 1.845,0.684l0,16.42c-0.571,0.229 -1.186,0.457 -1.845,0.685c-1.186,0.364 -2.767,0.684 -4.525,0.684c-5.974,0 -9.883,-4.105 -9.883,-9.579c0,-5.473 3.909,-9.578 9.883,-9.578Zm6.37,20.981c0,4.105 -3.514,7.754 -9.005,7.754c-2.109,0 -3.734,-0.547 -5.096,-1.231c-0.703,-0.411 -1.362,-0.822 -1.933,-1.277l-1.098,1.824c0.659,0.547 1.406,1.049 2.24,1.505c1.45,0.73 3.427,1.46 5.887,1.46c6.809,0 11.421,-4.743 11.421,-10.035l0,-21.437c-0.834,-0.32 -1.757,-0.639 -2.723,-0.913c-1.714,-0.502 -3.822,-0.912 -6.063,-0.912c-7.467,0 -12.3,5.337 -12.3,11.859c0,6.386 4.833,11.859 12.3,11.859c1.977,0 3.471,-0.319 4.657,-0.729c0.659,-0.183 1.23,-0.411 1.713,-0.685l0,0.958Zm28.554,-14.14c0,-5.519 -3.515,-9.122 -9.884,-9.122c-2.328,0 -4.129,0.547 -5.579,1.232c-0.791,0.41 -1.494,0.821 -2.109,1.277l1.099,1.824c0.527,-0.41 1.142,-0.73 1.801,-1.049c1.186,-0.502 2.811,-1.003 4.788,-1.003c4.92,0 7.468,2.691 7.468,6.841l0,0.913c-0.659,-0.183 -1.362,-0.32 -2.109,-0.457c-1.274,-0.228 -3.031,-0.456 -4.92,-0.456c-7.468,0 -10.762,3.376 -10.762,7.755c0,4.378 3.294,7.754 10.762,7.754c2.636,0 4.876,-0.411 6.677,-0.913c1.011,-0.273 1.933,-0.592 2.768,-0.912l0,-13.684Zm-2.416,12.088c-0.615,0.228 -1.318,0.41 -2.065,0.547c-1.274,0.319 -3.031,0.593 -4.964,0.593c-5.974,0 -8.346,-2.509 -8.346,-5.473c0,-2.965 2.196,-5.474 8.346,-5.474c1.889,0 3.514,0.228 4.92,0.456c0.747,0.137 1.45,0.274 2.109,0.456l0,8.895Z" style="fill:#6c6e70;fill-rule:nonzero;"/><path d="M365.047,118.948l10.67,0l0,-3.323l-6.758,0l0,-1.478l4.268,0l0,-3.323l-4.268,0l0,-1.478l6.58,0l0,-3.323l-10.492,0l0,12.925Zm21.542,-6.463l-4.09,-6.462l-4.09,0l0,12.925l3.912,0l0,-6.463l0.178,0l4.09,6.463l4.091,0l0,-12.925l-3.913,0l0,6.462l-0.178,0Zm6.605,-6.462l0,3.508l3.735,0l0,9.417l3.912,0l0,-9.417l3.735,0l0,-3.508l-11.382,0Zm13.896,12.925l10.67,0l0,-3.323l-6.758,0l0,-1.478l4.268,0l0,-3.323l-4.268,0l0,-1.478l6.58,0l0,-3.323l-10.492,0l0,12.925Zm13.362,-12.925l0,12.925l3.913,0l0,-4.062l1.867,0l2.401,4.062l4.446,0l-3.201,-5.17l0,-0.184c0.409,-0.167 0.764,-0.389 1.067,-0.665c0.551,-0.499 1.067,-1.274 1.067,-2.475c0,-2.492 -1.868,-4.431 -5.425,-4.431l-6.135,0Zm3.913,3.139l2.222,0c0.801,0 1.334,0.554 1.334,1.292c0,0.739 -0.533,1.293 -1.334,1.293l-2.222,0l0,-2.585Zm14.785,6.093l2.223,0c3.752,0 5.602,-1.939 5.602,-4.616c0,-2.677 -1.85,-4.616 -5.602,-4.616l-6.136,0l0,12.925l3.913,0l0,-3.693Zm2.223,-6.093c0.907,0 1.511,0.646 1.511,1.477c0,0.831 -0.604,1.477 -1.511,1.477l-2.223,0l0,-2.954l2.223,0Zm8.116,-3.139l0,12.925l3.912,0l0,-4.062l1.867,0l2.401,4.062l4.446,0l-3.201,-5.17l0,-0.184c0.409,-0.167 0.765,-0.389 1.067,-0.665c0.551,-0.499 1.067,-1.274 1.067,-2.475c0,-2.492 -1.867,-4.431 -5.424,-4.431l-6.135,0Zm3.912,3.139l2.223,0c0.8,0 1.334,0.554 1.334,1.292c0,0.739 -0.534,1.293 -1.334,1.293l-2.223,0l0,-2.585Zm14.785,-3.139l-3.912,0l0,12.925l3.912,0l0,-12.925Zm7.186,3.673c0,-0.45 0.433,-0.899 1.558,-0.899c0.83,0 1.474,0.245 2.007,0.54c0.28,0.154 0.536,0.341 0.761,0.538l1.557,-2.605c-0.363,-0.305 -0.762,-0.573 -1.228,-0.808c-0.814,-0.411 -1.973,-0.809 -3.444,-0.809c-3.391,0 -5.277,1.977 -5.277,4.043c0,4.761 6.143,3.683 6.143,5.03c0,0.557 -0.519,1.078 -1.904,1.078c-0.917,0 -1.69,-0.316 -2.318,-0.682c-0.358,-0.209 -0.675,-0.414 -0.97,-0.665l-1.556,2.605c0.415,0.341 0.904,0.655 1.435,0.934c0.905,0.475 2.181,0.952 3.755,0.952c3.651,0 5.624,-2.066 5.624,-4.222c0,-4.581 -6.143,-3.503 -6.143,-5.03Zm8.958,9.252l10.67,0l0,-3.323l-6.758,0l0,-1.478l4.268,0l0,-3.323l-4.268,0l0,-1.478l6.58,0l0,-3.323l-10.492,0l0,12.925Z" style="fill:#403f41;fill-rule:nonzero;"/><path d="M159.838,79.036c-0.522,-0.543 -2.008,-2.036 -4.508,-4.479c-2.483,-2.459 -5.097,-5.038 -7.842,-7.751c-2.744,-2.714 -5.211,-5.174 -7.368,-7.363c-2.173,-2.187 -3.267,-3.273 -3.267,-3.273c-0.376,-0.407 -0.702,-0.696 -0.948,-0.899c-0.26,-0.203 -0.538,-0.356 -0.864,-0.492c-0.312,-0.135 -0.671,-0.238 -1.047,-0.305c-0.392,-0.069 -0.768,-0.102 -1.159,-0.102c-0.246,0 -0.572,0.033 -0.948,0.102c-0.393,0.067 -0.735,0.17 -1.062,0.305c-0.31,0.136 -0.637,0.289 -0.948,0.492c-0.656,0.409 -3.596,3.648 -4.117,4.172c-2.172,2.189 -4.655,4.649 -7.465,7.363c-2.809,2.713 -5.424,5.292 -7.858,7.751l-0.895,0.905l-0.924,-0.905c-2.483,-2.459 -5.097,-5.038 -7.842,-7.751c-2.744,-2.714 -5.211,-5.174 -7.368,-7.363c-2.173,-2.187 -3.267,-3.273 -3.267,-3.273c-0.376,-0.407 -0.703,-0.696 -0.948,-0.899c-0.26,-0.203 -0.539,-0.356 -0.865,-0.492c-0.311,-0.135 -0.67,-0.238 -1.047,-0.305c-0.391,-0.069 -0.767,-0.102 -1.159,-0.102c-0.245,0 -0.572,0.033 -0.947,0.102c-0.393,0.067 -0.736,0.17 -1.062,0.305c-0.311,0.136 -0.637,0.289 -0.948,0.492c-0.657,0.409 -3.596,3.648 -4.117,4.172c-2.172,2.189 -4.655,4.649 -7.465,7.363c-2.81,2.713 -5.424,5.292 -7.859,7.751c-2.417,2.443 -3.887,3.936 -4.395,4.479c-0.521,0.525 -0.898,1.153 -1.159,1.883c-0.245,0.729 -0.376,1.459 -0.376,2.187c0,0.73 0.131,1.46 0.376,2.189c0.261,0.73 0.638,1.358 1.159,1.883c0.508,0.526 1.08,0.966 1.716,1.29c0.637,0.339 1.275,0.508 1.912,0.508c0.637,0 1.307,-0.136 2.009,-0.407c0.702,-0.272 1.372,-0.73 2.009,-1.391l19.147,-19.083l19.147,19.083c0.767,0.661 1.47,1.119 2.107,1.391c0.638,0.271 1.307,0.407 2.01,0.407c0.049,0 0.099,-0.001 0.148,-0.002c0.045,0.001 0.09,0.002 0.135,0.002c0.637,0 1.307,-0.136 2.01,-0.407c0.701,-0.272 1.372,-0.73 2.008,-1.391l19.148,-19.083l19.146,19.083c0.768,0.661 1.47,1.119 2.107,1.391c0.638,0.271 1.307,0.407 2.01,0.407c0.703,0 1.372,-0.169 2.01,-0.508c0.636,-0.324 1.208,-0.764 1.73,-1.29c0.508,-0.525 0.883,-1.153 1.144,-1.883c0.262,-0.729 0.377,-1.493 0.377,-2.289c0,-0.797 -0.115,-1.527 -0.377,-2.19c-0.261,-0.661 -0.636,-1.255 -1.144,-1.78" style="fill:#a6ce38;fill-rule:nonzero;"/><path d="M128.338,86.14l-19.146,19.083l-19.146,-19.083c-0.768,-0.661 -1.47,-1.12 -2.107,-1.391c-0.638,-0.272 -1.307,-0.408 -2.01,-0.408c-0.703,0 -1.372,0.17 -2.01,0.509c-0.637,0.323 -1.208,0.763 -1.73,1.29c-0.508,0.525 -0.882,1.153 -1.144,1.882c-0.262,0.73 -0.376,1.493 -0.376,2.29c0,0.797 0.114,1.527 0.376,2.189c0.262,0.661 0.636,1.255 1.144,1.78c0.522,0.544 2.008,2.037 4.508,4.479c2.483,2.46 5.097,5.038 7.842,7.751c2.744,2.715 5.211,5.174 7.367,7.363c2.174,2.188 3.268,3.274 3.268,3.274c0.376,0.407 0.703,0.695 0.948,0.899c0.26,0.203 0.538,0.355 0.865,0.491c0.311,0.136 0.67,0.238 1.047,0.305c0.391,0.069 0.767,0.103 1.158,0.103c0.391,0 0.768,-0.034 1.159,-0.103c0.376,-0.067 0.735,-0.169 1.047,-0.305c0.326,-0.136 0.604,-0.288 0.864,-0.491c0.246,-0.204 0.572,-0.492 0.948,-0.899c0,0 1.095,-1.086 3.268,-3.274c2.157,-2.189 4.623,-4.648 7.367,-7.363c2.745,-2.713 5.359,-5.291 7.843,-7.751c2.499,-2.442 3.985,-3.935 4.508,-4.479c0.507,-0.525 0.882,-1.119 1.144,-1.78c0.261,-0.662 0.376,-1.392 0.376,-2.189c0,-0.797 -0.115,-1.56 -0.376,-2.29c-0.262,-0.729 -0.637,-1.357 -1.144,-1.882c-0.523,-0.527 -1.094,-0.967 -1.731,-1.29c-0.638,-0.339 -1.307,-0.509 -2.01,-0.509c-0.702,0 -1.372,0.136 -2.009,0.408c-0.638,0.271 -1.34,0.73 -2.108,1.391" style="fill:#403f41;"/></g></svg>