<?xml version="1.0" encoding="UTF-8" standalone="no"?><!DOCTYPE svg PUBLIC "-//W3C//DTD SVG 1.1//EN" "http://www.w3.org/Graphics/SVG/1.1/DTD/svg11.dtd"><svg width="100%" height="100%" viewBox="0 0 990 637" version="1.1" xmlns="http://www.w3.org/2000/svg" xmlns:xlink="http://www.w3.org/1999/xlink" xml:space="preserve" xmlns:serif="http://www.serif.com/" style="fill-rule:evenodd;clip-rule:evenodd;stroke-linejoin:round;stroke-miterlimit:2;"><g><path d="M649.952,379.712l151.19,103.641l-237.342,109.095l-151.186,-103.641l237.338,-109.095Z" style="fill:#ededed;fill-rule:nonzero;"/><path d="M459.371,492.116l109.278,74.916l-7.197,3.305l-109.278,-74.912l7.197,-3.309Z" style="fill:#1d1d1b;fill-rule:nonzero;"/><path d="M479.082,483.057l109.278,74.916l-4.429,2.036l-109.278,-74.916l4.429,-2.036Z" style="fill:#1d1d1b;fill-rule:nonzero;"/><path d="M490.984,477.585l109.278,74.916l-4.429,2.036l-109.278,-74.916l4.429,-2.036Z" style="fill:#1d1d1b;fill-rule:nonzero;"/><path d="M502.886,472.117l109.278,74.912l-4.429,2.036l-109.277,-74.916l4.428,-2.032Z" style="fill:#1d1d1b;fill-rule:nonzero;"/><path d="M526.691,461.173l109.277,74.916l-4.428,2.036l-109.278,-74.916l4.429,-2.036Z" style="fill:#1d1d1b;fill-rule:nonzero;"/><path d="M538.593,455.701l109.278,74.916l-4.429,2.036l-109.278,-74.916l4.429,-2.036Z" style="fill:#1d1d1b;fill-rule:nonzero;"/><path d="M617.932,496.462l41.841,28.683l-4.429,2.036l-41.84,-28.683l4.428,-2.036Z" style="fill:#1d1d1b;fill-rule:nonzero;"/><path d="M562.397,444.76l109.278,74.916l-4.429,2.033l-109.278,-74.913l4.429,-2.036Z" style="fill:#1d1d1b;fill-rule:nonzero;"/><path d="M574.299,439.288l109.278,74.916l-4.429,2.037l-109.277,-74.916l4.428,-2.037Z" style="fill:#1d1d1b;fill-rule:nonzero;"/><path d="M611.798,451.367l83.681,57.365l-4.428,2.037l-83.681,-57.369l4.428,-2.033Z" style="fill:#1d1d1b;fill-rule:nonzero;"/><path d="M682.455,458.911l48.731,33.409l-4.429,2.036l-48.73,-33.409l4.428,-2.036Z" style="fill:#1d1d1b;fill-rule:nonzero;"/><path d="M694.357,453.443l48.731,33.405l-4.429,2.036l-48.73,-33.405l4.428,-2.036Z" style="fill:#1d1d1b;fill-rule:nonzero;"/><path d="M632.727,415.28c-12.007,5.518 -12.908,16.089 -2.009,23.561c10.904,7.475 29.542,9.064 41.55,3.542c12.007,-5.518 12.908,-16.089 2.008,-23.561c-10.899,-7.474 -29.537,-9.063 -41.549,-3.542Zm40.97,28.082c-12.876,5.919 -32.861,4.215 -44.55,-3.798c-11.689,-8.013 -10.722,-19.348 2.154,-25.266c12.877,-5.919 32.862,-4.215 44.551,3.798c11.689,8.013 10.722,19.347 -2.155,25.266Z" style="fill:#1d71b8;fill-rule:nonzero;"/><path d="M635.35,417.075c-10.417,4.789 -11.199,13.957 -1.743,20.441c9.456,6.483 25.625,7.858 36.042,3.073c10.413,-4.79 11.198,-13.958 1.742,-20.441c-9.459,-6.484 -25.624,-7.862 -36.041,-3.073Zm35.251,24.165c-10.998,5.056 -28.063,3.601 -38.043,-3.243c-9.983,-6.841 -9.158,-16.521 1.84,-21.574c10.994,-5.056 28.059,-3.601 38.042,3.244c9.98,6.84 9.155,16.52 -1.839,21.573Z" style="fill:#1d71b8;fill-rule:nonzero;"/><path d="M642.668,422.092c-5.969,2.747 -6.417,8 -0.999,11.714c5.422,3.719 14.685,4.509 20.658,1.762c5.969,-2.744 6.417,-8 0.999,-11.715c-5.418,-3.714 -14.685,-4.505 -20.658,-1.761Zm20.611,14.131c-6.55,3.01 -16.713,2.144 -22.658,-1.932c-5.946,-4.076 -5.454,-9.84 1.095,-12.851c6.55,-3.01 16.713,-2.144 22.658,1.932c5.946,4.076 5.454,9.84 -1.095,12.851Z" style="fill:#1d71b8;fill-rule:nonzero;"/><path d="M644.86,419.015l-0.206,-0.006l-0.211,-0.07l-3.752,-1.644l1.989,2.156c-0.429,0.114 -2.873,-2.544 -2.873,-2.544l0.368,-0.146l0.258,0.089l3.664,1.622l-1.992,-2.161c0.429,-0.11 2.876,2.549 2.876,2.549l-0.121,0.155Z" style="fill:#1d71b8;fill-rule:nonzero;"/><path d="M647.14,416.384l-0.516,-0.449l-0.822,-0.07l-0.661,0.242l-0.017,0.51l0.665,1.289l0.516,0.456l0.826,0.067l0.661,-0.238l0.013,-0.514l-0.665,-1.293Zm0.122,2.302l-0.608,0.018l-0.549,-0.102l-0.456,-0.237l-0.325,-0.403l-0.665,-1.293l-0.103,-0.421l0.173,-0.313l0.388,-0.206l0.557,-0.114l0.605,-0.022l0.553,0.102l0.448,0.237l0.325,0.399l0.67,1.29l0.098,0.428l-0.169,0.313l-0.388,0.206l-0.554,0.118Z" style="fill:#1d71b8;fill-rule:nonzero;"/><path d="M651.482,415.363l-1.179,0.264l0.501,2.732c-0.484,0.003 -0.989,-2.73 -0.989,-2.73l-1.236,0.005l2.903,-0.271Z" style="fill:#1d71b8;fill-rule:nonzero;"/><path d="M654.685,417.741l-0.699,-1.774l-1.1,1.602l1.799,0.172Zm-2.568,0.719l-0.183,-0.045l1.803,-2.823c0.368,-0.064 0.427,-0.048 0.478,-0.025l1.311,3.07l-0.302,0.117l-0.176,-0.088l-0.265,-0.674l-2.051,-0.197l-0.415,0.612l-0.2,0.053Z" style="fill:#1d71b8;fill-rule:nonzero;"/><path d="M657.669,416.306l-0.545,1.113l0.968,0.204l0.84,0.038l0.51,-0.368l-0.085,-0.486l-0.713,-0.292l-0.975,-0.209Zm-0.399,-0.247l0.226,-0.054l1.265,0.269l0.575,0.163l0.426,0.232l0.216,0.313l-0.056,0.4l-0.243,0.303l-0.349,0.176l-0.425,0.067l-0.478,-0.019l0.524,1.41l-0.333,0.133l-0.701,-1.616l-0.909,-0.195l-0.598,1.218c-0.471,-0.102 0.86,-2.8 0.86,-2.8Z" style="fill:#1d71b8;fill-rule:nonzero;"/><path d="M661.327,419.002l-0.027,-1.922l0.356,-0.095l0.112,1.856l2.442,-0.884l0.237,-0.009l-2.644,1.18l-0.889,0.936c-0.436,-0.152 0.413,-1.062 0.413,-1.062Z" style="fill:#1d71b8;fill-rule:nonzero;"/><path d="M675.694,428.683l-4.972,0.278l4.972,-0.278Z" style="fill:#1d71b8;fill-rule:nonzero;"/><path d="M644.576,423.399c-4.815,2.213 -5.176,6.45 -0.806,9.446c4.368,2.992 11.838,3.629 16.649,1.419c4.815,-2.212 5.176,-6.45 0.809,-9.446c-4.37,-2.996 -11.838,-3.632 -16.652,-1.419Zm16.799,11.517c-5.392,2.477 -13.762,1.763 -18.653,-1.59c-4.895,-3.354 -4.49,-8.102 0.902,-10.579c5.391,-2.48 13.759,-1.767 18.653,1.591c4.894,3.353 4.489,8.102 -0.902,10.578Z" style="fill:#1d71b8;fill-rule:nonzero;"/><path d="M637.564,422.08l0.206,0.087l0.106,0.204l-0.161,0.178l-0.344,0.03l-2.177,-0.425l0.325,1.286l-0.104,0.168l-0.331,0.06l-0.368,-0.087l-0.102,-0.156l-0.196,-1.26l-1.981,0.427l-0.259,0.004l-0.217,-0.092l-0.129,-0.195l0.15,-0.183l2.129,-0.407l-1.506,-0.963l-0.104,-0.19l0.159,-0.152l0.293,-0.056l0.315,0.094l1.395,1.027l1.045,-1.051l0.423,-0.089l0.313,0.118l0.051,0.273l-1.132,0.978l2.201,0.372Z" style="fill:#1d71b8;fill-rule:nonzero;"/><path d="M673.055,436.044l0.206,0.088l0.106,0.204l-0.161,0.178l-0.343,0.029l-2.178,-0.425l0.325,1.286l-0.104,0.168l-0.331,0.06l-0.367,-0.086l-0.103,-0.16l-0.196,-1.257l-1.98,0.428l-0.259,0.003l-0.217,-0.092l-0.13,-0.195l0.151,-0.182l2.128,-0.407l-1.506,-0.964l-0.103,-0.189l0.159,-0.152l0.293,-0.06l0.314,0.097l1.396,1.028l1.045,-1.052l0.423,-0.089l0.316,0.119l0.044,0.269l-1.128,0.978l2.2,0.375Z" style="fill:#1d71b8;fill-rule:nonzero;"/><path d="M780.788,312.919c1.211,-14.198 -7.462,-32.33 -19.378,-40.495c-5.924,-4.063 -11.532,-4.89 -15.825,-2.953c-4.335,1.956 -7.328,6.738 -7.936,13.875c-1.211,14.199 7.466,32.327 19.378,40.492c6.165,4.227 11.98,4.947 16.333,2.702c4.059,-2.093 6.844,-6.768 7.428,-13.621Z" style="fill:#575756;fill-rule:nonzero;"/><path d="M759.374,329.789c-9.524,3.095 -17.703,-7.908 -22.981,-17.303c-4.484,-12.917 -12.659,-28.932 -6.413,-33.123c7.034,-4.077 24.441,2.33 36.064,8.038c0.653,15.582 5.821,35.895 -6.67,42.388Z" style="fill:#dadada;fill-rule:nonzero;"/><path d="M833.123,291.703l-61.061,23.482l-19.926,8.685c-4.343,0.674 -3.76,13.083 -11.991,20.752l-12.3,11.016l-3.907,-1.36l-23.797,-8.265l0.21,-0.619c0.216,-0.633 0.404,-1.264 0.545,-1.904c-3.658,-7.052 -19.078,-6.409 -33.688,-6.294l-2.75,5.804c4.924,0.155 8.453,2.829 10.832,7.565l-3.205,4.513l-12.849,18.107l-1.456,2.051l-8.185,-2.103l-2.994,-0.421c-2.813,-0.395 -5.397,-1.767 -7.274,-3.869l-14.049,-15.702c-3.215,-3.762 -4.51,-7.817 -2.841,-12.318c-1.456,-1.997 -2.035,-4.346 -1.016,-7.331l-0.438,-1.23c-0.99,-2.8 -0.822,-5.872 0.478,-8.55l0.26,-0.545l6.423,-13.257l1.421,-4.015c1.852,-5.247 6.972,-8.758 12.622,-8.471l59.864,-13.216c9.7,-1.918 18.828,-2.836 26.791,-1.738l72.347,-46.627l31.934,55.86Z" style="fill:#fcaf75;fill-rule:nonzero;"/><path d="M672.085,355.078l-15.33,-6.612c5.335,-5.675 7.356,-13.432 9.848,-22.194c7.067,3.142 14.502,5.464 21.613,6.071c5.302,0.452 10.424,-0.05 15.068,-1.884c0.578,4.686 -0.53,9.687 -2.925,14.936c0.208,-0.634 0.396,-1.265 0.537,-1.905c-2.004,-3.865 -7.539,-5.418 -14.538,-6.015c-5.775,-0.492 -12.542,-0.33 -19.15,-0.279l-2.75,5.804c0.25,0.007 0.496,0.02 0.738,0.041c4.541,0.387 7.833,3.026 10.094,7.524l-3.205,4.513Z" style="fill:#fa9355;fill-rule:nonzero;"/><path d="M655.603,374.679l-6.008,-1.546l-2.994,-0.421c-2.813,-0.395 -5.397,-1.767 -7.274,-3.869l-14.049,-15.702c-2.476,-2.897 -3.81,-5.962 -3.535,-9.276c0.08,-0.99 0.309,-2.004 0.694,-3.042c-1.073,-1.475 -1.669,-3.141 -1.501,-5.114c0.059,-0.697 0.216,-1.438 0.485,-2.217l-0.438,-1.23c-0.535,-1.51 -0.729,-3.097 -0.596,-4.661c0.118,-1.337 0.474,-2.656 1.074,-3.889l0.26,-0.545l1.09,3.599l7.823,-14.834l-6.736,18.956l1.69,4.166c4.458,-8.576 7.524,-16.641 10.813,-27.358c1.401,-3.961 4.71,-5.29 8.428,-6.074c-4.129,2.213 -5.553,4.509 -6.22,7.719c-2.877,11.08 -6.125,19.773 -10.925,28.673c-2.122,3.929 -1.715,8.78 1.135,12.253c2.094,2.552 4.905,4.591 7.613,4.822c1.532,0.13 3.027,-0.316 4.337,-1.581c-2.074,-2.954 -3.242,-7.399 -0.748,-11.083c4.946,-7.581 8.527,-15.793 9.765,-24.378c1.77,-8.154 6.229,-9.102 11.955,-8.643c-5.367,1.18 -8.7,2.882 -10.431,8.773c-0.865,9.135 -3.597,17.593 -8.4,25.293c-2.152,3.452 -1.41,8.007 1.863,10.483c4.146,4.397 9.449,6.299 15.436,6.809c0.294,0.025 0.584,0.046 0.879,0.064l-0.428,2.867l-0.313,-0.108c-1.322,3.997 -2.833,7.702 -4.744,11.094Z" style="fill:#fa9355;fill-rule:nonzero;"/><path d="M685.107,414.845c-1.749,5.797 -15.885,6.766 -31.581,2.16c-15.695,-4.605 -27.004,-13.038 -25.258,-18.835c1.749,-5.797 15.885,-6.766 31.581,-2.161c15.695,4.606 27.004,13.039 25.258,18.836Z" style="fill:#1d1d1b;fill-rule:nonzero;"/><path d="M687.975,405.545l-56.839,-16.675l-2.868,9.3l56.711,17.032l2.996,-9.657Z" style="fill:#1d1d1b;fill-rule:nonzero;"/><path d="M687.975,405.545c-1.749,5.797 -15.885,6.766 -31.581,2.161c-15.695,-4.606 -27.004,-13.039 -25.258,-18.836c1.749,-5.797 15.885,-6.766 31.581,-2.161c15.695,4.606 27.004,13.039 25.258,18.836Z" style="fill:#292928;fill-rule:nonzero;"/><path d="M687.138,403.321c-1.745,5.797 -15.436,6.897 -30.579,2.452c-15.144,-4.44 -26.003,-12.743 -24.257,-18.54c1.745,-5.797 15.436,-6.897 30.579,-2.452c15.144,4.44 26.003,12.743 24.257,18.54Z" style="fill:#3c3c3b;fill-rule:nonzero;"/><path d="M677.81,400.175c-1.227,3.943 -10.149,4.727 -19.927,1.756c-9.774,-2.967 -16.706,-8.573 -15.475,-12.512c1.228,-3.943 10.15,-4.731 19.928,-1.76c9.778,2.972 16.706,8.574 15.474,12.516Z" style="fill:#1d1d1b;fill-rule:nonzero;"/><path d="M677.819,369.707l-17.472,-6.122c-3.321,10.038 -7.84,18.233 -16.815,24.212l33.907,9.476c-3.44,-8.715 -3.06,-16.74 0.38,-27.566Z" style="fill:#1d1d1b;fill-rule:nonzero;"/><path d="M687.662,364.225c-1.62,5.381 -8.819,7.884 -19.303,4.94c-9.072,-2.55 -14.968,-8.303 -13.436,-14.545c1.62,-6.607 10.226,-7.47 19.304,-4.941c9.97,2.782 15.055,9.165 13.435,14.546Z" style="fill:#3c3c3b;fill-rule:nonzero;"/><path d="M685.705,359.154c-0.825,2.645 -7.431,2.983 -14.759,0.754c-7.328,-2.225 -12.602,-6.174 -11.777,-8.819c0.824,-2.642 7.434,-2.98 14.762,-0.754c7.328,2.225 12.599,6.173 11.774,8.819Z" style="fill:#525250;fill-rule:nonzero;"/><path d="M727.845,355.638l-14.989,13.424c0,0 -2.824,4.12 -15.401,14.792c-5.116,4.34 -9.192,6.722 -12.41,7.909c-8.042,2.982 -10.69,-1.497 -10.69,-1.497c-13.375,-13.9 14.933,-29.515 14.933,-29.515c4.933,-4.742 8.959,-9.605 10.853,-14.738c8.537,-0.928 16.801,1.311 24.752,7.246c0.987,0.732 1.972,1.526 2.952,2.379Z" style="fill:#fcaf75;fill-rule:nonzero;"/><path d="M727.845,355.638c-0.98,-0.853 -1.965,-1.647 -2.952,-2.379c3.409,-3.646 6.922,-7.596 10.774,-11.436c5.456,-4.856 8.819,-12.141 11.18,-20.586c1.44,-3.402 1.453,-8.041 1.107,-12.986c1.585,2.979 2.413,6.365 2.302,10.259c6.272,0.414 16.142,-5.467 21.19,-14.198l0.616,10.873l-4.863,2.121l-15.063,6.564c-1.458,0.225 -2.361,1.77 -3.227,4.018c-1.716,4.449 -3.296,11.637 -8.764,16.734l-12.3,11.016Z" style="fill:#fa9355;fill-rule:nonzero;"/><path d="M682.291,392.212c7.672,-3.397 8.402,-6.414 5.665,-10.871c-1.325,-2.159 -3.516,-3.048 -6.011,-3.261c-1.759,-0.15 -3.674,0.036 -5.544,0.355c2.497,-1.303 4.996,-1.918 7.398,-1.713c1.729,0.147 3.407,0.717 5.004,1.762c2.461,1.623 2.988,3.794 3.08,5.826c8.861,-6.173 16.128,-12.412 19.02,-18.832c4.513,-2.585 8.703,-6.613 13.035,-11.2c0.321,-0.337 0.638,-0.678 0.955,-1.019c0.987,0.732 1.972,1.526 2.952,2.379l-14.989,13.424c0,0 -2.824,4.12 -15.401,14.792c-5.116,4.34 -9.192,6.722 -12.41,7.909l-2.754,0.449Z" style="fill:#fa9355;fill-rule:nonzero;"/><path d="M729.98,279.363c20.625,-6.561 42.932,39.695 29.394,50.426l24.011,-11.924c8.914,-15.665 -4.867,-48.441 -27.002,-52.775l-26.403,14.273Z" style="fill:#ededed;fill-rule:nonzero;"/><path d="M852.595,279.433c-1.386,16.255 -13.565,21.854 -27.204,12.505c-13.639,-9.35 -23.571,-30.105 -22.186,-46.36c1.386,-16.255 13.569,-21.851 27.204,-12.505c13.639,9.349 23.571,30.105 22.186,46.36Z" style="fill:#1d1d1b;fill-rule:nonzero;"/><path d="M1084.78,181.928l-49.637,-105.905l-289.562,193.448c4.293,-1.937 9.901,-1.11 15.825,2.953c11.912,8.165 20.589,26.297 19.378,40.492c-0.584,6.856 -3.369,11.531 -7.428,13.624c0,0 167.671,-67.035 229.863,-97.127c49.814,-24.103 81.561,-47.485 81.561,-47.485Z" style="fill:#1d1d1b;fill-rule:nonzero;"/></g><g><g><path d="M488.959,128.57l47.385,33.449c6.705,4.737 7.286,13.346 1.511,22.436l-45.872,72.188c-5.779,9.089 -16.98,17.198 -29.194,21.13l-86.284,27.766l112.454,-176.969Z" style="fill:#3c3c3b;fill-rule:nonzero;"/><path d="M527.228,226.637l6.882,-10.833c1.52,-2.391 0.457,-4.426 -2.371,-4.546l-25.369,-1.079c-2.829,-0.12 -6.352,1.72 -7.872,4.107l-6.883,10.834c-1.52,2.39 -0.457,4.425 2.372,4.545l25.369,1.079c2.828,0.12 6.352,-1.72 7.872,-4.107Z" style="fill:#dadada;fill-rule:nonzero;"/><path d="M488.977,128.545l-13.022,-24.949l-132.881,-5.623l-112.452,176.973l145.897,30.564l112.458,-176.965Z" style="fill:#1d1d1b;fill-rule:nonzero;"/><path d="M429.069,287.007l-137.472,9.753l85.909,-176.609l137.471,-9.757l-85.908,176.613Z" style="fill:#ededed;fill-rule:nonzero;"/><path d="M486.198,130.469l-99.368,7.051l2.607,-5.354l99.367,-7.051l-2.606,5.354Z" style="fill:#1d1d1b;fill-rule:nonzero;"/><path d="M479.063,145.136l-99.364,7.051l1.602,-3.294l99.367,-7.051l-1.605,3.294Z" style="fill:#1d1d1b;fill-rule:nonzero;"/><path d="M474.756,153.992l-99.367,7.051l1.605,-3.293l99.364,-7.052l-1.602,3.294Z" style="fill:#1d1d1b;fill-rule:nonzero;"/><path d="M470.446,162.849l-99.364,7.051l1.602,-3.294l99.367,-7.051l-1.605,3.294Z" style="fill:#1d1d1b;fill-rule:nonzero;"/><path d="M461.829,180.562l-99.364,7.051l1.602,-3.294l99.367,-7.051l-1.605,3.294Z" style="fill:#1d1d1b;fill-rule:nonzero;"/><path d="M457.523,189.422l-99.368,7.051l1.605,-3.297l99.364,-7.052l-1.601,3.298Z" style="fill:#1d1d1b;fill-rule:nonzero;"/><path d="M391.893,202.628l-38.044,2.701l1.601,-3.297l38.048,-2.698l-1.605,3.294Z" style="fill:#1d1d1b;fill-rule:nonzero;"/><path d="M448.906,207.135l-99.367,7.051l1.605,-3.297l99.364,-7.052l-1.602,3.298Z" style="fill:#1d1d1b;fill-rule:nonzero;"/><path d="M444.599,215.991l-99.367,7.051l1.602,-3.297l99.367,-7.051l-1.602,3.297Z" style="fill:#1d1d1b;fill-rule:nonzero;"/><path d="M389.546,282.908l-137.695,-5.854l105.334,-165.764l137.695,5.858l-105.334,165.76Z" style="fill:#c6c6c6;fill-rule:nonzero;"/><path d="M464.015,133.839l-99.529,-4.232l3.197,-5.027l99.526,4.232l-3.194,5.027Z" style="fill:#1d1d1b;fill-rule:nonzero;"/><path d="M455.267,147.603l-99.525,-4.232l1.965,-3.092l99.526,4.231l-1.966,3.093Z" style="fill:#1d1d1b;fill-rule:nonzero;"/><path d="M449.984,155.916l-99.526,-4.231l1.966,-3.093l99.525,4.231l-1.965,3.093Z" style="fill:#1d1d1b;fill-rule:nonzero;"/><path d="M444.7,164.229l-99.525,-4.234l1.965,-3.093l99.529,4.235l-1.969,3.092Z" style="fill:#1d1d1b;fill-rule:nonzero;"/><path d="M434.137,180.853l-99.526,-4.231l1.965,-3.093l99.526,4.231l-1.965,3.093Z" style="fill:#1d1d1b;fill-rule:nonzero;"/><path d="M428.856,189.166l-99.525,-4.231l1.965,-3.092l99.526,4.231l-1.966,3.092Z" style="fill:#1d1d1b;fill-rule:nonzero;"/><path d="M362.154,194.869l-38.107,-1.621l1.966,-3.095l38.106,1.623l-1.965,3.093Z" style="fill:#1d1d1b;fill-rule:nonzero;"/><path d="M418.289,205.793l-99.525,-4.234l1.965,-3.093l99.526,4.235l-1.966,3.092Z" style="fill:#1d1d1b;fill-rule:nonzero;"/><path d="M413.009,214.107l-99.525,-4.235l1.965,-3.092l99.525,4.231l-1.965,3.096Z" style="fill:#1d1d1b;fill-rule:nonzero;"/><path d="M384.413,221.426l-76.213,-3.24l1.965,-3.093l76.213,3.24l-1.965,3.093Z" style="fill:#1d1d1b;fill-rule:nonzero;"/><path d="M336.736,245.013l-44.383,-1.891l1.965,-3.092l44.384,1.887l-1.966,3.096Z" style="fill:#1d1d1b;fill-rule:nonzero;"/><path d="M331.453,253.323l-44.38,-1.887l1.965,-3.092l44.38,1.886l-1.965,3.093Z" style="fill:#1d1d1b;fill-rule:nonzero;"/><path d="M384.408,277.484l-137.695,-5.854l105.334,-165.764l137.692,5.857l-105.331,165.761Z" style="fill:#ededed;fill-rule:nonzero;"/><path d="M458.874,128.414l-99.526,-4.234l3.194,-5.024l99.525,4.231l-3.193,5.027Z" style="fill:#1d1d1b;fill-rule:nonzero;"/><path d="M450.126,142.178l-99.526,-4.231l1.966,-3.093l99.529,4.232l-1.969,3.092Z" style="fill:#1d1d1b;fill-rule:nonzero;"/><path d="M444.846,150.492l-99.526,-4.232l1.966,-3.095l99.525,4.234l-1.965,3.093Z" style="fill:#1d1d1b;fill-rule:nonzero;"/><path d="M439.562,158.805l-99.525,-4.235l1.965,-3.092l99.526,4.235l-1.966,3.092Z" style="fill:#1d1d1b;fill-rule:nonzero;"/><path d="M428.998,175.429l-99.525,-4.232l1.965,-3.092l99.526,4.231l-1.966,3.093Z" style="fill:#1d1d1b;fill-rule:nonzero;"/><path d="M423.715,183.742l-99.526,-4.231l1.966,-3.093l99.525,4.232l-1.965,3.092Z" style="fill:#1d1d1b;fill-rule:nonzero;"/><path d="M357.016,189.444l-38.107,-1.62l1.966,-3.096l38.106,1.621l-1.965,3.095Z" style="fill:#1d1d1b;fill-rule:nonzero;"/><path d="M413.151,200.369l-99.525,-4.235l1.965,-3.092l99.526,4.231l-1.966,3.096Z" style="fill:#1d1d1b;fill-rule:nonzero;"/><path d="M407.868,208.679l-99.526,-4.231l1.966,-3.093l99.525,4.231l-1.965,3.093Z" style="fill:#1d1d1b;fill-rule:nonzero;"/><path d="M379.275,216.001l-76.213,-3.24l1.965,-3.092l76.213,3.24l-1.965,3.092Z" style="fill:#1d1d1b;fill-rule:nonzero;"/><path d="M331.599,239.585l-44.384,-1.887l1.965,-3.092l44.384,1.887l-1.965,3.092Z" style="fill:#1d1d1b;fill-rule:nonzero;"/><path d="M326.315,247.899l-44.384,-1.887l1.966,-3.093l44.383,1.887l-1.965,3.093Z" style="fill:#1d1d1b;fill-rule:nonzero;"/><path d="M365.858,256.041l-16.674,-13.426c-2.988,-2.406 -3.134,-6.532 -0.386,-10.86l52.794,-83.079c2.748,-4.328 7.99,-8.222 13.801,-10.254l32.411,-11.339c10.549,-3.691 20.069,-10.764 25.064,-18.625l3.073,-4.833l-132.867,-5.652l-112.452,176.973l132.864,5.648l3.069,-4.833c4.995,-7.86 4.732,-15.349 -0.697,-19.72Z" style="fill:#3c3c3b;fill-rule:nonzero;"/><path d="M338.05,203.565l18.475,-29.071l11.298,0.48l-18.471,29.074l-11.302,-0.483Z" style="fill:#575756;fill-rule:nonzero;"/><path d="M243.644,299.894l-13.022,-24.948l132.864,5.645l13.022,24.948l-132.864,-5.645Z" style="fill:#1d1d1b;fill-rule:nonzero;"/></g><g><path d="M112.146,213.555c7.995,13.26 20.545,13.022 28.031,-0.533c7.486,-13.555 7.072,-35.291 -0.927,-48.549c-7.994,-13.256 -20.544,-13.018 -28.027,0.535c-7.486,13.554 -7.072,35.291 0.923,48.547Z" style="fill:#1d1d1b;fill-rule:nonzero;"/><path d="M188.443,212.684c-6.984,-11.582 -7.346,-30.571 -0.808,-42.408c3.251,-5.89 7.6,-8.899 12.006,-9.012c4.452,-0.116 8.967,2.723 12.478,8.545c6.985,11.582 7.348,30.566 0.807,42.406c-3.38,6.125 -7.949,9.128 -12.534,9.004c-4.281,-0.112 -8.578,-2.945 -11.949,-8.535Z" style="fill:#575756;fill-rule:nonzero;"/><path d="M213.467,218.239c9.271,-1.275 11.49,-13.995 11.961,-24.157c-1.68,-12.826 -1.573,-29.81 -8.564,-30.811c-7.6,-0.581 -19.477,12.018 -26.81,21.649c6.01,13.522 10.226,32.926 23.413,33.319Z" style="fill:#dadada;fill-rule:nonzero;"/><path d="M293.41,168.848l-0.156,0.213c-0.557,0.762 0.163,3.33 -2.704,7.538c-1.795,2.614 1.199,3.369 -0.973,6.848l-3.178,4.797c-4.528,7.282 -11.116,13.68 -14.785,22.19c-1.715,3.96 -9.07,12.175 -10.067,15.844c-0.5,1.833 -5.022,1.549 -7.947,1.355c-12.78,-0.81 -21.057,-5.729 -32.98,-14.512l-16.396,-3.087c-12.611,-10.468 -6.736,-41.141 6.366,-45.503l28.843,1.505l44.574,2.327l7.746,0.4l1.657,0.085Z" style="fill:#fcaf75;fill-rule:nonzero;"/><path d="M227.306,217.862c-2.061,-1.383 -4.197,-2.91 -6.464,-4.574c2.264,1.666 4.403,3.191 6.464,4.574Z" style="fill:url(#_Linear1);"/><path d="M220.842,213.288c-0.075,-0.057 -0.148,-0.11 -0.222,-0.167l-16.396,-3.087l16.396,3.087c0.074,0.057 0.147,0.11 0.222,0.167Zm-21.092,-9.19c-0.116,-0.247 -0.229,-0.496 -0.339,-0.751l-0.278,-0.063l0.617,0.814Z" style="fill:#d8b89f;fill-rule:nonzero;"/><path d="M248.277,227.007l8.83,-14.459c-0.06,0.036 -0.116,0.07 -0.173,0.104c-1.445,0.871 -2.826,1.525 -4.09,1.922c-10.099,3.327 -18.829,3.707 -30.985,-5.926l-22.448,-5.301c0.11,0.255 0.223,0.504 0.339,0.751l4.474,5.936l16.396,3.087c0.074,0.057 0.147,0.11 0.222,0.167c2.267,1.664 4.403,3.191 6.464,4.574c7.097,4.761 13.323,7.828 20.971,9.145Z" style="fill:#fa9355;fill-rule:nonzero;"/><path d="M216.864,163.271c-20.025,2.889 -19.246,51.401 -3.397,54.968l-25.115,-0.283c-14.049,-9.666 -16.3,-43.208 0.41,-55.986l28.102,1.301Z" style="fill:#fff;fill-rule:nonzero;"/><path d="M-9.207,243.785l-52.878,-121.612l261.729,39.09c-4.409,0.114 -8.758,3.123 -12.009,9.013c-6.538,11.837 -6.176,30.826 0.808,42.408c3.371,5.59 7.668,8.423 11.949,8.535l-209.599,22.566Z" style="fill:#1d1d1b;fill-rule:nonzero;"/><path d="M284.078,168.365l0.681,-1.122l-0.454,0.043l-7.649,-0.211c0.412,0.036 0.829,0.101 1.238,0.192c2.147,0.481 4.201,0.843 6.184,1.098Zm-8.67,-1.326l-35.975,-1.003l32.478,1.694c1.143,-0.409 2.318,-0.651 3.497,-0.691Z" style="fill:#fdd7ba;fill-rule:nonzero;"/><path d="M284.075,168.367l0.003,-0.002c-1.983,-0.255 -4.037,-0.617 -6.184,-1.098c-0.409,-0.091 -0.826,-0.156 -1.238,-0.192l-1.248,-0.036c-1.179,0.04 -2.354,0.282 -3.497,0.691l12.096,0.633l0.068,0.004Z" style="fill:url(#_Linear2);"/><path d="M266.226,184.709c3.505,-2.113 6.891,-4.671 9.971,-7.508c0.919,-0.087 1.798,-0.178 2.652,-0.271l5.226,-8.563l-0.068,-0.004l-12.096,-0.633l-32.478,-1.694c-3.884,1.773 -7.78,3.298 -11.683,4.567c3.831,24.182 22.425,23.785 38.476,14.106Z" style="fill:#fa9355;fill-rule:nonzero;"/><path d="M297.597,171.439c0.757,-0.456 1.523,-0.951 2.298,-1.491l2.685,-4.403l-17.821,1.698l-0.681,1.122l-0.003,0.002l-5.226,8.563c7.978,-0.886 13.248,-2.174 18.748,-5.491Z" style="fill:#ebc8ad;fill-rule:nonzero;"/><path d="M228.021,165.433c9.394,-3.052 18.772,-7.533 27.758,-13.492c3.352,-2.225 7.511,-3.205 11.376,-2.098c17.885,5.126 30.032,2.872 43.237,-3.039c7.709,4.355 3.456,13.588 -4.565,18.433c-12.497,7.548 -14.605,6.284 -29.373,6.791c-17.193,15.833 -51.687,38.995 -48.433,-6.595Z" style="fill:#fcaf75;fill-rule:nonzero;"/></g></g><defs><linearGradient id="_Linear1" x1="0" y1="0" x2="1" y2="0" gradientUnits="userSpaceOnUse" gradientTransform="matrix(-328.557,198.13,198.13,328.557,496.513,106.141)"><stop offset="0" style="stop-color:#8d7766;stop-opacity:1"/><stop offset="1" style="stop-color:#fdd7ba;stop-opacity:1"/></linearGradient><linearGradient id="_Linear2" x1="0" y1="0" x2="1" y2="0" gradientUnits="userSpaceOnUse" gradientTransform="matrix(-328.557,198.13,198.13,328.557,496.513,106.141)"><stop offset="0" style="stop-color:#8d7766;stop-opacity:1"/><stop offset="1" style="stop-color:#fdd7ba;stop-opacity:1"/></linearGradient></defs></svg>